<svg xmlns="http://www.w3.org/2000/svg" width="1024" height="1024" viewBox="0 0 1024 1024">
<g>
<path d="M 704.31 714.75 C697.52,721.49 691.55,727.00 691.04,727.00 C689.24,727.00 688.99,725.09 690.37,721.82 C694.92,711.04 698.46,685.05 697.70,668.00 C696.75,646.54 693.25,632.07 684.53,613.50 C677.91,599.40 670.05,588.85 654.97,573.81 C640.90,559.78 629.89,551.53 615.66,544.34 C601.40,537.14 575.43,528.59 558.50,525.53 C553.55,524.63 547.83,523.46 545.79,522.92 C540.78,521.60 475.55,521.68 465.50,523.01 C450.86,524.96 432.28,529.14 425.50,532.02 C424.40,532.48 419.00,534.74 413.50,537.02 C408.00,539.31 403.07,541.59 402.55,542.09 C402.03,542.59 400.14,543.00 398.36,543.00 C396.58,543.00 394.84,543.45 394.50,544.00 C394.16,544.55 392.99,545.00 391.89,545.00 C390.80,545.00 387.96,546.92 385.58,549.26 C383.21,551.60 379.96,554.19 378.38,555.01 C369.80,559.44 353.16,573.86 342.67,585.94 C329.92,600.61 320.63,622.42 316.02,648.50 C311.92,671.63 315.40,704.09 323.48,718.15 C325.49,721.66 325.41,724.00 323.27,724.00 C320.36,724.00 301.59,703.18 290.81,688.00 C284.41,678.98 275.08,661.95 270.46,650.83 C268.33,645.70 266.32,641.28 265.99,641.00 C263.02,638.53 257.92,616.56 252.59,583.20 L 250.30 568.90 L 246.15 564.91 C243.87,562.72 242.00,560.60 242.00,560.21 C241.99,558.65 230.27,550.16 226.79,549.20 C224.75,548.64 220.32,546.25 216.96,543.89 C208.72,538.11 201.14,536.55 181.50,536.59 C166.88,536.62 166.40,536.69 162.61,539.31 C160.47,540.79 158.16,542.00 157.48,542.00 C156.80,542.00 155.71,542.64 155.06,543.43 C154.40,544.22 153.01,544.80 151.97,544.72 C150.18,544.59 150.16,544.47 151.75,542.54 C152.68,541.42 155.44,538.55 157.90,536.16 C160.35,533.77 163.65,530.20 165.22,528.22 C171.33,520.54 228.79,480.95 284.00,446.39 C288.67,443.47 293.45,440.41 294.61,439.60 C296.85,438.03 318.31,399.86 347.52,345.50 C357.27,327.35 365.56,312.27 365.93,312.00 C366.29,311.73 367.62,310.04 368.87,308.25 C370.11,306.46 371.99,305.00 373.04,305.00 C375.72,305.00 379.34,296.83 379.47,290.50 C379.55,286.53 380.61,283.54 384.63,276.00 C387.41,270.77 394.53,257.27 400.45,246.00 C406.37,234.73 413.35,221.45 415.97,216.50 C418.58,211.55 423.77,201.65 427.50,194.50 C431.23,187.35 437.84,174.75 442.20,166.50 C446.56,158.25 450.94,149.93 451.94,148.00 C452.93,146.07 455.54,141.12 457.75,137.00 C459.95,132.88 467.49,118.47 474.49,105.00 C502.10,51.87 504.03,48.16 505.96,48.16 C506.11,48.16 506.25,48.18 506.41,48.20 L 506.42 48.20 C507.76,48.39 509.43,50.29 511.10,53.50 C512.54,56.25 514.83,60.53 516.21,63.00 C518.52,67.17 527.68,84.25 530.68,90.00 C531.40,91.38 531.99,92.82 531.99,93.21 C532.00,93.60 533.80,96.75 535.99,100.21 C538.19,103.67 539.99,107.14 539.99,107.92 C540.00,108.70 540.61,110.05 541.36,110.92 C542.11,111.79 544.65,116.10 547.00,120.50 C549.36,124.90 554.00,133.45 557.33,139.50 C560.65,145.55 566.04,155.68 569.31,162.00 C572.57,168.32 576.96,176.43 579.07,180.00 C581.18,183.57 583.38,187.62 583.95,189.00 C584.53,190.38 585.46,192.18 586.02,193.00 C586.58,193.82 587.74,196.02 588.58,197.87 C589.43,199.73 591.16,202.88 592.41,204.87 C593.67,206.87 596.63,212.10 599.00,216.50 C601.37,220.90 604.54,226.75 606.05,229.50 C607.56,232.25 611.14,238.77 613.99,244.00 C616.85,249.23 620.80,256.42 622.77,260.00 C624.73,263.58 628.46,270.55 631.05,275.50 C638.19,289.15 640.38,293.13 643.15,297.50 C644.54,299.70 646.84,303.75 648.26,306.50 C649.68,309.25 652.44,314.42 654.38,318.00 C656.32,321.58 659.50,327.73 661.43,331.68 C663.37,335.63 665.36,339.10 665.85,339.41 C666.34,339.71 668.01,342.55 669.57,345.73 C671.13,348.90 673.01,352.23 673.75,353.13 C675.89,355.73 679.00,362.26 679.00,364.18 C679.00,365.14 680.29,367.41 681.86,369.22 C684.37,372.10 693.00,386.38 693.00,387.65 C693.00,387.92 695.20,391.81 697.89,396.31 C709.43,415.65 720.00,433.96 720.07,434.70 C720.18,436.03 726.42,444.24 728.01,445.16 C730.59,446.64 751.26,458.09 757.00,461.21 C760.03,462.86 763.21,464.83 764.08,465.60 C764.95,466.37 765.97,467.00 766.35,467.00 C766.73,467.00 770.07,468.87 773.77,471.16 C777.47,473.44 784.55,477.53 789.50,480.24 C794.45,482.96 799.43,486.04 800.56,487.09 C801.70,488.14 803.15,489.00 803.80,489.00 C804.80,489.00 814.60,495.11 823.21,501.11 C824.70,502.15 826.30,503.00 826.77,503.00 C827.24,503.00 828.51,503.79 829.59,504.75 C830.67,505.71 833.26,507.38 835.35,508.45 C839.70,510.68 845.00,515.75 845.00,517.69 C845.00,518.41 845.57,519.00 846.27,519.00 C849.68,519.00 859.26,526.16 858.50,528.15 C857.82,529.91 848.66,529.78 844.28,527.94 C841.31,526.69 840.88,526.77 838.57,528.93 C836.20,531.17 835.95,531.20 833.57,529.64 C830.52,527.64 822.21,527.47 819.47,529.36 C818.39,530.11 816.15,530.97 814.50,531.27 C807.27,532.57 801.06,534.96 796.45,538.19 C793.73,540.11 790.02,542.26 788.20,542.98 C786.39,543.70 783.27,546.27 781.28,548.71 C779.29,551.14 776.40,553.78 774.87,554.57 C771.39,556.37 768.76,564.26 767.05,578.00 C765.30,592.08 762.98,606.72 761.41,613.50 C759.76,620.66 752.73,643.69 751.33,646.51 C750.79,647.60 747.68,653.87 744.42,660.43 C733.24,682.97 724.81,694.39 704.31,714.75 ZM 400.00 392.56 C400.00,394.53 402.09,394.37 406.66,392.05 C412.44,389.11 422.99,384.93 427.50,383.79 C429.70,383.23 433.07,382.10 434.99,381.29 C436.90,380.47 443.43,378.77 449.49,377.50 C455.54,376.23 463.65,374.52 467.50,373.70 C494.11,368.03 535.85,368.57 566.00,374.97 C576.83,377.27 586.57,379.81 589.50,381.11 C590.60,381.59 595.01,383.12 599.31,384.50 C603.60,385.89 608.87,387.91 611.02,389.01 C615.11,391.10 619.00,391.63 619.00,390.10 C619.00,389.08 612.94,376.45 609.59,370.50 C604.48,361.42 600.89,354.70 593.02,339.50 C588.47,330.70 582.38,319.00 579.50,313.50 C576.62,308.00 570.31,295.85 565.49,286.50 C560.67,277.15 554.25,264.77 551.23,259.00 C545.89,248.80 540.38,238.18 523.75,206.00 C512.91,185.02 511.03,181.82 509.77,182.24 C508.67,182.61 506.13,187.34 487.10,224.50 C481.18,236.05 472.28,253.38 467.31,263.00 C462.34,272.62 454.35,288.15 449.55,297.50 C444.74,306.85 440.45,314.95 440.01,315.50 C439.57,316.05 435.98,322.80 432.03,330.50 C428.09,338.20 424.26,345.62 423.53,347.00 C422.80,348.38 421.47,351.08 420.57,353.00 C419.67,354.92 418.30,357.62 417.53,359.00 C416.06,361.63 412.81,368.06 406.09,381.67 C403.87,386.17 401.59,390.13 401.03,390.48 C400.46,390.83 400.00,391.77 400.00,392.56 ZM 951.29 834.99 C950.62,845.57 950.24,847.53 948.80,847.80 C947.50,848.05 946.75,846.87 945.63,842.81 C944.82,839.89 942.75,832.33 941.02,826.00 C939.29,819.67 936.77,810.90 935.40,806.50 C934.04,802.10 932.06,795.58 931.01,792.00 C926.28,775.88 921.83,761.13 916.57,744.07 C913.01,732.57 911.10,724.76 911.46,723.28 C911.79,721.99 911.57,719.13 910.98,716.93 C909.94,713.06 910.05,712.75 914.45,706.96 C917.87,702.46 919.00,700.10 919.00,697.43 C919.00,695.34 920.36,691.32 922.33,687.62 C926.33,680.08 928.97,672.32 929.08,667.81 C929.12,665.99 929.38,665.06 929.66,665.75 C929.94,666.44 930.76,667.00 931.48,667.00 C932.28,667.00 933.21,669.24 933.88,672.75 C934.49,675.91 935.90,682.76 937.01,687.97 C938.13,693.18 938.82,698.03 938.54,698.75 C938.27,699.47 938.66,701.73 939.41,703.78 C940.16,705.83 941.75,714.70 942.94,723.50 C944.12,732.30 945.49,742.20 945.98,745.50 C946.47,748.80 947.38,756.67 947.99,763.00 C948.61,769.33 949.53,778.33 950.04,783.00 C951.55,796.82 952.14,821.59 951.29,834.99 ZM 81.36 861.25 C80.81,863.18 78.49,863.60 77.47,861.94 C74.72,857.50 75.64,790.55 78.92,755.50 C81.83,724.51 85.85,696.36 88.13,690.97 C89.19,688.48 89.97,685.56 89.87,684.47 C89.52,680.74 90.00,679.00 91.39,679.00 C92.16,679.00 93.11,679.79 93.51,680.75 C94.42,682.98 96.95,696.79 96.98,699.71 C96.99,700.92 98.35,704.20 100.00,707.00 C101.65,709.80 103.00,712.91 103.00,713.92 C103.00,714.93 103.68,716.32 104.50,717.00 C105.32,717.68 106.00,719.06 106.00,720.06 C106.00,721.06 106.45,722.16 107.00,722.50 C107.55,722.84 108.00,723.98 108.00,725.02 C108.00,726.07 108.84,727.38 109.86,727.92 C111.49,728.80 111.69,730.02 111.48,737.71 C111.35,742.54 110.75,747.62 110.14,749.00 C108.59,752.53 106.60,760.24 94.54,809.50 C90.91,824.35 87.31,838.08 86.53,840.00 C85.76,841.92 84.39,847.10 83.50,851.50 C82.60,855.90 81.64,860.29 81.36,861.25 Z" fill="rgb(0,129,228)"/>
<path d="M 110.82 745.96 C111.15,743.73 111.40,740.67 111.48,737.71 C111.69,730.02 111.49,728.80 109.86,727.92 C108.84,727.38 108.00,726.07 108.00,725.02 C108.00,723.98 107.55,722.84 107.00,722.50 C106.45,722.16 106.00,721.06 106.00,720.06 C106.00,719.06 105.32,717.68 104.50,717.00 C103.68,716.32 103.00,714.93 103.00,713.92 C103.00,712.91 101.65,709.80 100.00,707.00 C98.35,704.20 96.99,700.92 96.98,699.71 C96.95,696.79 94.42,682.98 93.51,680.75 C93.11,679.79 92.16,679.00 91.39,679.00 C90.00,679.00 89.52,680.74 89.87,684.47 C89.97,685.56 89.19,688.48 88.13,690.97 C87.11,693.37 85.75,700.27 84.30,709.92 C88.10,682.43 92.73,657.56 97.55,639.43 C109.77,593.42 125.98,563.57 152.63,537.98 C157.73,533.08 166.41,526.11 177.76,517.68 C171.11,522.69 166.69,526.38 165.22,528.22 C163.65,530.20 160.35,533.77 157.90,536.16 C155.44,538.55 152.68,541.42 151.75,542.54 C150.16,544.47 150.18,544.59 151.97,544.72 C153.01,544.80 154.40,544.22 155.06,543.43 C155.71,542.64 156.80,542.00 157.48,542.00 C158.16,542.00 160.47,540.79 162.61,539.31 C166.40,536.69 166.88,536.62 181.50,536.59 C201.14,536.55 208.72,538.11 216.96,543.89 C220.32,546.25 224.75,548.64 226.79,549.20 C230.27,550.16 241.99,558.65 242.00,560.21 C242.00,560.60 243.87,562.72 246.15,564.91 L 250.30 568.90 L 252.59 583.20 C257.92,616.54 263.01,638.50 265.98,640.99 C265.06,640.65 262.90,639.97 260.44,639.27 C253.31,637.24 248.72,632.89 249.44,628.84 C249.71,627.30 249.35,625.71 248.58,625.07 C247.85,624.46 246.96,622.17 246.61,619.97 C245.66,614.03 241.06,605.79 234.17,597.70 C230.79,593.74 226.56,588.54 224.77,586.15 C221.82,582.24 219.34,580.54 209.50,575.70 C207.85,574.89 204.72,573.27 202.54,572.11 C199.03,570.24 196.91,570.00 184.00,570.00 L 169.43 570.00 L 163.97 573.53 C160.96,575.48 156.02,578.23 153.00,579.65 C146.57,582.66 142.96,585.79 138.75,592.00 C137.08,594.47 134.70,597.62 133.47,599.00 C131.48,601.22 123.93,615.40 120.42,623.50 C118.72,627.40 118.05,633.37 117.37,650.60 C116.91,662.50 117.09,665.46 118.58,669.60 C119.55,672.29 120.45,677.08 120.59,680.22 C120.90,687.02 121.59,688.58 123.58,686.94 C125.52,685.32 126.54,688.13 125.03,690.95 C124.41,692.11 123.98,695.41 124.08,698.28 C124.22,702.25 122.98,707.33 118.94,719.50 C116.01,728.30 113.49,735.95 113.35,736.50 C112.88,738.35 111.93,741.87 110.82,745.96 ZM 754.28 638.03 C756.89,629.85 760.32,618.23 761.41,613.50 C762.98,606.72 765.30,592.08 767.05,578.00 C768.76,564.26 771.39,556.37 774.87,554.57 C776.40,553.78 779.29,551.14 781.28,548.71 C783.27,546.27 786.39,543.70 788.20,542.98 C790.02,542.26 793.73,540.11 796.45,538.19 C801.06,534.96 807.27,532.57 814.50,531.27 C816.15,530.97 818.39,530.11 819.47,529.36 C822.21,527.47 830.52,527.64 833.57,529.64 C835.95,531.20 836.20,531.17 838.57,528.93 C840.88,526.77 841.31,526.69 844.28,527.94 C848.66,529.78 857.82,529.91 858.50,528.15 C859.26,526.16 849.68,519.00 846.27,519.00 C845.57,519.00 845.00,518.41 845.00,517.69 C845.00,516.24 842.03,513.03 838.71,510.57 C843.08,513.39 849.46,517.66 856.00,522.20 C864.93,528.40 884.29,549.01 891.88,560.41 C909.55,586.95 923.12,622.78 933.01,669.00 L 933.20 669.89 C932.65,668.07 932.03,667.00 931.48,667.00 C930.76,667.00 929.94,666.44 929.66,665.75 C929.38,665.06 929.12,665.99 929.08,667.81 C928.97,672.32 926.33,680.08 922.33,687.62 C920.36,691.32 919.00,695.34 919.00,697.43 C919.00,700.10 917.87,702.46 914.45,706.96 C910.05,712.75 909.94,713.06 910.98,716.93 C911.57,719.13 911.79,721.99 911.46,723.28 C911.16,724.50 912.42,730.08 914.89,738.50 C911.01,726.47 906.26,712.72 902.57,703.00 C899.34,694.49 895.98,682.08 895.99,678.71 C896.00,677.72 896.95,675.63 898.12,674.05 C901.43,669.57 903.50,648.83 902.01,635.00 C901.38,629.22 900.25,623.24 899.49,621.71 C898.73,620.17 897.80,616.79 897.42,614.21 C897.04,611.62 895.89,608.31 894.87,606.85 C893.84,605.39 893.00,603.64 893.00,602.97 C893.00,601.81 884.92,589.87 882.36,587.24 C881.68,586.55 880.86,585.20 880.52,584.24 C879.63,581.69 861.42,567.55 855.58,564.87 C854.43,564.34 852.38,563.27 851.00,562.47 C849.14,561.40 844.77,561.03 833.88,561.01 C820.77,561.00 819.01,561.21 816.73,563.00 C815.33,564.10 813.70,565.00 813.10,565.00 C812.50,565.00 809.88,566.57 807.26,568.48 C794.55,577.78 791.07,580.68 790.10,582.75 C789.52,583.99 786.77,587.93 784.00,591.50 C781.23,595.07 778.42,599.23 777.77,600.75 C777.11,602.26 775.55,604.77 774.29,606.33 C772.49,608.55 772.00,610.40 772.00,615.00 C772.00,620.10 771.67,621.12 769.42,622.89 C766.86,624.90 766.88,627.00 769.45,627.00 C770.19,627.00 771.03,627.63 771.32,628.40 C771.70,629.37 770.83,630.00 768.49,630.44 C766.52,630.81 764.88,631.81 764.55,632.85 C764.19,633.97 762.13,635.10 758.99,635.91 C756.43,636.56 754.88,637.26 754.28,638.03 ZM 382.06 281.06 C380.13,285.16 379.53,287.56 379.47,290.50 C379.34,296.83 375.72,305.00 373.04,305.00 C371.99,305.00 370.11,306.46 368.87,308.25 C367.62,310.04 366.29,311.73 365.93,312.00 C365.66,312.19 361.46,319.76 355.58,330.58 C360.91,320.60 366.11,310.78 370.96,301.50 C374.41,294.90 377.57,289.05 377.97,288.50 C378.27,288.10 379.92,285.08 382.06,281.06 ZM 380.04 553.95 C381.71,552.77 383.87,550.95 385.58,549.26 C387.96,546.92 390.80,545.00 391.89,545.00 C392.99,545.00 394.16,544.55 394.50,544.00 C394.84,543.45 396.58,543.00 398.36,543.00 C398.96,543.00 399.58,542.95 400.15,542.87 C399.14,543.35 398.31,543.76 397.76,544.06 C396.81,544.58 392.31,547.08 387.76,549.63 C384.93,551.22 382.06,552.82 380.04,553.95 ZM 704.31 714.75 C709.92,709.17 714.63,704.27 718.74,699.62 C710.93,708.79 702.11,717.90 695.18,723.66 C694.80,723.97 694.45,724.25 694.11,724.51 C696.59,722.27 700.30,718.72 704.31,714.75 ZM 78.01 766.89 C76.48,789.04 75.69,817.92 75.87,838.05 C75.56,817.26 76.29,787.60 78.01,766.89 ZM 331.40 375.31 C310.67,413.36 296.41,438.33 294.61,439.60 C296.28,438.42 312.34,410.13 331.40,375.31 ZM 103.06 774.89 C107.12,758.56 108.64,752.98 109.67,750.18 C108.95,752.79 108.21,755.48 107.51,758.00 C105.94,763.68 105.02,767.04 103.06,774.89 ZM 210.04 494.75 C231.59,479.95 257.12,463.22 284.00,446.39 C257.97,462.68 231.45,480.09 210.04,494.75 ZM 743.04 663.19 C743.50,662.29 743.96,661.37 744.42,660.43 C746.60,656.04 748.71,651.79 750.03,649.12 C748.10,653.29 745.64,658.25 743.04,663.19 ZM 752.30 643.99 C752.77,642.65 753.35,640.91 753.99,638.93 C753.92,639.78 753.31,641.58 752.30,643.99 ZM 922.32 762.87 C925.28,772.64 928.09,782.06 931.01,792.00 C929.96,788.42 927.55,780.33 925.66,774.00 C924.75,770.99 923.55,766.98 922.32,762.87 ZM 937.78 691.84 C938.71,696.75 938.79,698.10 938.54,698.75 C938.74,698.21 938.42,695.39 937.78,691.84 ZM 690.33 721.90 C692.28,717.28 694.05,709.91 695.38,701.64 C694.06,709.88 692.30,717.23 690.37,721.82 C689.58,723.69 689.32,725.11 689.58,725.99 C689.22,725.35 689.45,723.98 690.33,721.90 ZM 421.48 533.70 C423.49,532.86 424.98,532.24 425.50,532.02 C427.86,531.02 431.65,529.86 436.20,528.69 C431.55,529.89 427.74,531.06 425.50,532.06 C424.79,532.37 423.24,533.01 421.48,533.70 ZM 934.99 678.30 C935.81,682.15 936.46,685.25 936.97,687.77 C936.33,684.79 935.61,681.32 934.99,678.30 ZM 77.68 862.24 C78.22,862.87 78.98,863.08 79.68,862.92 C78.91,863.15 78.10,862.96 77.69,862.25 ZM 835.24 508.39 C834.60,508.06 833.91,507.67 833.23,507.26 C833.58,507.42 834.28,507.80 835.24,508.39 ZM 410.00 227.83 C412.54,223.00 414.64,219.02 415.97,216.50 C418.58,211.55 423.77,201.65 427.50,194.50 C423.77,201.65 418.58,211.55 415.97,216.50 C414.75,218.81 412.57,222.94 410.00,227.83 Z" fill="rgb(2,110,196)"/>
<path d="M 0.00 512.00 L 0.00 0.00 L 512.00 0.00 L 1024.00 0.00 L 1024.00 512.00 L 1024.00 1024.00 L 512.00 1024.00 L 0.00 1024.00 L 0.00 512.00 ZM 81.36 861.25 C81.64,860.29 82.60,855.90 83.50,851.50 C84.39,847.10 85.76,841.92 86.53,840.00 C87.31,838.08 90.91,824.35 94.54,809.50 C103.94,771.08 104.58,768.57 107.51,758.00 C109.77,749.89 112.43,740.07 113.35,736.50 C113.49,735.95 116.01,728.30 118.94,719.50 C122.98,707.33 124.22,702.25 124.08,698.28 C123.98,695.41 124.41,692.11 125.03,690.95 C126.54,688.13 125.52,685.32 123.58,686.94 C121.59,688.58 120.90,687.02 120.59,680.22 C120.45,677.08 119.55,672.29 118.58,669.60 C117.09,665.46 116.91,662.50 117.37,650.60 C118.05,633.37 118.72,627.40 120.42,623.50 C123.93,615.40 131.48,601.22 133.47,599.00 C134.70,597.62 137.08,594.47 138.75,592.00 C142.96,585.79 146.57,582.66 153.00,579.65 C156.02,578.23 160.96,575.48 163.97,573.53 L 169.43 570.00 L 184.00 570.00 C196.91,570.00 199.03,570.24 202.54,572.11 C204.72,573.27 207.85,574.89 209.50,575.70 C219.34,580.54 221.82,582.24 224.77,586.15 C226.56,588.54 230.79,593.74 234.17,597.70 C241.06,605.79 245.66,614.03 246.61,619.97 C246.96,622.17 247.85,624.46 248.58,625.07 C249.35,625.71 249.71,627.30 249.44,628.84 C248.72,632.89 253.31,637.24 260.44,639.27 C263.64,640.18 266.34,641.05 266.45,641.21 C266.55,641.37 268.37,645.70 270.49,650.83 C275.06,661.90 284.37,678.93 290.81,688.00 C301.59,703.18 320.36,724.00 323.27,724.00 C325.41,724.00 325.49,721.66 323.48,718.15 C315.40,704.09 311.92,671.63 316.02,648.50 C320.63,622.42 329.92,600.61 342.67,585.94 C352.68,574.41 368.95,560.13 377.49,555.38 C378.59,554.77 383.22,552.18 387.76,549.63 C392.31,547.08 396.81,544.58 397.76,544.06 C400.98,542.33 413.36,536.83 418.45,534.88 C421.23,533.81 424.40,532.55 425.50,532.06 C431.83,529.25 450.68,524.99 465.50,523.01 C475.55,521.68 540.78,521.60 545.79,522.92 C547.83,523.46 553.55,524.63 558.50,525.53 C575.43,528.59 601.40,537.14 615.66,544.34 C629.89,551.53 640.90,559.78 654.97,573.81 C670.05,588.85 677.91,599.40 684.53,613.50 C693.25,632.07 696.75,646.54 697.70,668.00 C698.46,685.11 694.91,711.07 690.33,721.90 C688.09,727.18 690.08,727.90 695.18,723.66 C706.95,713.88 724.14,694.48 732.61,681.43 C740.55,669.22 754.00,642.38 754.00,638.78 C754.00,637.70 755.63,636.77 758.99,635.91 C762.13,635.10 764.19,633.97 764.55,632.85 C764.88,631.81 766.52,630.81 768.49,630.44 C770.83,630.00 771.70,629.37 771.32,628.40 C771.03,627.63 770.19,627.00 769.45,627.00 C766.88,627.00 766.86,624.90 769.42,622.89 C771.67,621.12 772.00,620.10 772.00,615.00 C772.00,610.40 772.49,608.55 774.29,606.33 C775.55,604.77 777.11,602.26 777.77,600.75 C778.42,599.23 781.23,595.07 784.00,591.50 C786.77,587.93 789.52,583.99 790.10,582.75 C791.07,580.68 794.55,577.78 807.26,568.48 C809.88,566.57 812.50,565.00 813.10,565.00 C813.70,565.00 815.33,564.10 816.73,563.00 C819.01,561.21 820.77,561.00 833.88,561.01 C844.77,561.03 849.14,561.40 851.00,562.47 C852.38,563.27 854.43,564.34 855.58,564.87 C861.42,567.55 879.63,581.69 880.52,584.24 C880.86,585.20 881.68,586.55 882.36,587.24 C884.92,589.87 893.00,601.81 893.00,602.97 C893.00,603.64 893.84,605.39 894.87,606.85 C895.89,608.31 897.04,611.62 897.42,614.21 C897.80,616.79 898.73,620.17 899.49,621.71 C900.25,623.24 901.38,629.22 902.01,635.00 C903.50,648.83 901.43,669.57 898.12,674.05 C896.95,675.63 896.00,677.72 895.99,678.71 C895.98,682.08 899.34,694.49 902.57,703.00 C907.53,716.08 914.43,736.47 918.51,750.13 C920.54,756.94 923.76,767.67 925.66,774.00 C927.55,780.33 929.96,788.42 931.01,792.00 C932.06,795.58 934.04,802.10 935.40,806.50 C936.77,810.90 939.29,819.67 941.02,826.00 C942.75,832.33 944.82,839.89 945.63,842.81 C946.75,846.87 947.50,848.05 948.80,847.80 C950.24,847.53 950.62,845.57 951.29,834.99 C952.14,821.59 951.55,796.82 950.04,783.00 C949.53,778.33 948.61,769.33 947.99,763.00 C947.38,756.67 946.47,748.80 945.98,745.50 C945.49,742.20 944.12,732.30 942.94,723.50 C941.75,714.70 940.16,705.83 939.41,703.78 C938.66,701.73 938.27,699.47 938.54,698.75 C939.01,697.53 938.33,693.85 933.01,669.00 C923.12,622.78 909.55,586.95 891.88,560.41 C884.29,549.01 864.93,528.40 856.00,522.20 C845.10,514.64 834.68,507.81 833.15,507.23 C832.24,506.89 830.63,505.79 829.56,504.80 C828.50,503.81 827.24,503.00 826.77,503.00 C826.30,503.00 824.70,502.15 823.21,501.11 C814.60,495.11 804.80,489.00 803.80,489.00 C803.15,489.00 801.70,488.14 800.56,487.09 C799.43,486.04 794.45,482.96 789.50,480.24 C784.55,477.53 777.47,473.44 773.77,471.16 C770.07,468.87 766.73,467.00 766.35,467.00 C765.97,467.00 764.95,466.37 764.08,465.60 C763.21,464.83 760.03,462.86 757.00,461.21 C751.26,458.09 730.59,446.64 728.01,445.16 C726.42,444.24 720.18,436.03 720.07,434.70 C720.00,433.96 709.43,415.65 697.89,396.31 C695.20,391.81 693.00,387.92 693.00,387.65 C693.00,386.38 684.37,372.10 681.86,369.22 C680.29,367.41 679.00,365.14 679.00,364.18 C679.00,362.26 675.89,355.73 673.75,353.13 C673.01,352.23 671.13,348.90 669.57,345.73 C668.01,342.55 666.34,339.71 665.85,339.41 C665.36,339.10 663.37,335.63 661.43,331.68 C659.50,327.73 656.32,321.58 654.38,318.00 C652.44,314.42 649.68,309.25 648.26,306.50 C646.84,303.75 644.54,299.70 643.15,297.50 C640.38,293.13 638.19,289.15 631.05,275.50 C628.46,270.55 624.73,263.58 622.77,260.00 C620.80,256.42 616.85,249.23 613.99,244.00 C611.14,238.77 607.56,232.25 606.05,229.50 C604.54,226.75 601.37,220.90 599.00,216.50 C596.63,212.10 593.67,206.87 592.41,204.87 C591.16,202.88 589.43,199.73 588.58,197.87 C587.74,196.02 586.58,193.82 586.02,193.00 C585.46,192.18 584.53,190.38 583.95,189.00 C583.38,187.62 581.18,183.57 579.07,180.00 C576.96,176.43 572.57,168.32 569.31,162.00 C566.04,155.68 560.65,145.55 557.33,139.50 C554.00,133.45 549.36,124.90 547.00,120.50 C544.65,116.10 542.11,111.79 541.36,110.92 C540.61,110.05 540.00,108.70 539.99,107.92 C539.99,107.14 538.19,103.67 535.99,100.21 C533.80,96.75 532.00,93.60 531.99,93.21 C531.99,92.82 531.40,91.38 530.68,90.00 C527.68,84.25 518.52,67.17 516.21,63.00 C514.83,60.53 512.54,56.25 511.10,53.50 C509.43,50.29 507.76,48.39 506.42,48.20 C504.17,47.88 504.22,47.80 474.49,105.00 C467.49,118.47 459.95,132.88 457.75,137.00 C455.54,141.12 452.93,146.07 451.94,148.00 C450.94,149.93 446.56,158.25 442.20,166.50 C437.84,174.75 431.23,187.35 427.50,194.50 C423.77,201.65 418.58,211.55 415.97,216.50 C410.86,226.16 394.55,257.23 384.73,276.00 C381.42,282.33 378.38,287.95 377.97,288.50 C377.57,289.05 374.41,294.90 370.96,301.50 C340.93,358.93 297.42,437.62 294.61,439.60 C293.45,440.41 288.67,443.47 284.00,446.39 C223.09,484.52 169.14,522.13 152.63,537.98 C125.98,563.57 109.77,593.42 97.55,639.43 C89.55,669.52 82.09,718.16 78.03,766.58 C75.23,800.13 75.02,857.61 77.69,862.25 C78.49,863.65 80.86,863.01 81.36,861.25 ZM 400.00 392.56 C400.00,391.77 400.46,390.83 401.03,390.48 C401.59,390.13 403.87,386.17 406.09,381.67 C412.81,368.06 416.06,361.63 417.53,359.00 C418.30,357.62 419.67,354.92 420.57,353.00 C421.47,351.08 422.80,348.38 423.53,347.00 C424.26,345.62 428.09,338.20 432.03,330.50 C435.98,322.80 439.57,316.05 440.01,315.50 C440.45,314.95 444.74,306.85 449.55,297.50 C454.35,288.15 462.34,272.62 467.31,263.00 C472.28,253.38 481.18,236.05 487.10,224.50 C506.13,187.34 508.67,182.61 509.77,182.24 C511.03,181.82 512.91,185.02 523.75,206.00 C540.38,238.18 545.89,248.80 551.23,259.00 C554.25,264.77 560.67,277.15 565.49,286.50 C570.31,295.85 576.62,308.00 579.50,313.50 C582.38,319.00 588.47,330.70 593.02,339.50 C600.89,354.70 604.48,361.42 609.59,370.50 C612.94,376.45 619.00,389.08 619.00,390.10 C619.00,391.63 615.11,391.10 611.02,389.01 C608.87,387.91 603.60,385.89 599.31,384.50 C595.01,383.12 590.60,381.59 589.50,381.11 C586.57,379.81 576.83,377.27 566.00,374.97 C535.85,368.57 494.11,368.03 467.50,373.70 C463.65,374.52 455.54,376.23 449.49,377.50 C443.43,378.77 436.90,380.47 434.99,381.29 C433.07,382.10 429.70,383.23 427.50,383.79 C422.99,384.93 412.44,389.11 406.66,392.05 C402.09,394.37 400.00,394.53 400.00,392.56 Z" fill="rgb(3,90,164)"/>
<path d="M 0.00 512.00 L 0.00 0.00 L 512.00 0.00 L 1024.00 0.00 L 1024.00 512.00 L 1024.00 1024.00 L 512.00 1024.00 L 0.00 1024.00 L 0.00 512.00 ZM 81.36 861.25 C81.64,860.29 82.60,855.90 83.50,851.50 C84.39,847.10 85.76,841.92 86.53,840.00 C87.31,838.08 90.91,824.35 94.54,809.50 C103.94,771.08 104.58,768.57 107.51,758.00 C109.77,749.89 112.43,740.07 113.35,736.50 C115.22,729.24 125.01,701.91 128.85,693.24 C143.66,659.75 164.59,642.26 197.50,635.86 C213.02,632.84 244.50,634.67 261.55,639.57 C266.01,640.86 266.76,641.47 267.89,644.76 C270.60,652.64 282.19,675.03 288.24,684.06 C299.20,700.43 319.87,724.00 323.27,724.00 C325.41,724.00 325.49,721.66 323.48,718.15 C315.40,704.09 311.92,671.63 316.02,648.50 C320.63,622.42 329.92,600.61 342.67,585.94 C352.68,574.41 368.95,560.13 377.49,555.38 C378.59,554.77 383.22,552.18 387.76,549.63 C392.31,547.08 396.81,544.58 397.76,544.06 C400.98,542.33 413.36,536.83 418.45,534.88 C421.23,533.81 424.40,532.55 425.50,532.06 C431.83,529.25 450.68,524.99 465.50,523.01 C475.55,521.68 540.78,521.60 545.79,522.92 C547.83,523.46 553.55,524.63 558.50,525.53 C575.43,528.59 601.40,537.14 615.66,544.34 C629.89,551.53 640.90,559.78 654.97,573.81 C670.05,588.85 677.91,599.40 684.53,613.50 C693.25,632.07 696.75,646.54 697.70,668.00 C698.46,685.11 694.91,711.07 690.33,721.90 C688.09,727.18 690.08,727.90 695.18,723.66 C706.95,713.88 724.14,694.48 732.61,681.43 C740.47,669.34 754.00,642.39 754.00,638.84 C754.00,635.31 783.01,629.09 803.00,628.34 C832.49,627.22 852.42,633.64 870.24,649.98 C887.22,665.55 903.17,698.62 918.48,750.00 C920.53,756.88 923.76,767.67 925.66,774.00 C927.55,780.33 929.96,788.42 931.01,792.00 C932.06,795.58 934.04,802.10 935.40,806.50 C936.77,810.90 939.29,819.67 941.02,826.00 C942.75,832.33 944.82,839.89 945.63,842.81 C946.75,846.87 947.50,848.05 948.80,847.80 C950.24,847.53 950.62,845.57 951.29,834.99 C952.14,821.59 951.55,796.82 950.04,783.00 C949.53,778.33 948.61,769.33 947.99,763.00 C947.38,756.67 946.47,748.80 945.98,745.50 C945.49,742.20 944.12,732.30 942.94,723.50 C941.75,714.70 940.16,705.83 939.41,703.78 C938.66,701.73 938.27,699.47 938.54,698.75 C939.01,697.53 938.33,693.85 933.01,669.00 C923.12,622.78 909.55,586.95 891.88,560.41 C884.29,549.01 864.93,528.40 856.00,522.20 C845.10,514.64 834.68,507.81 833.15,507.23 C832.24,506.89 830.63,505.79 829.56,504.80 C828.50,503.81 827.24,503.00 826.77,503.00 C826.30,503.00 824.70,502.15 823.21,501.11 C814.60,495.11 804.80,489.00 803.80,489.00 C803.15,489.00 801.70,488.14 800.56,487.09 C799.43,486.04 794.45,482.96 789.50,480.24 C784.55,477.53 777.47,473.44 773.77,471.16 C770.07,468.87 766.73,467.00 766.35,467.00 C765.97,467.00 764.95,466.37 764.08,465.60 C763.21,464.83 760.03,462.86 757.00,461.21 C751.26,458.09 730.59,446.64 728.01,445.16 C726.42,444.24 720.18,436.03 720.07,434.70 C720.00,433.96 709.43,415.65 697.89,396.31 C695.20,391.81 693.00,387.92 693.00,387.65 C693.00,386.38 684.37,372.10 681.86,369.22 C680.29,367.41 679.00,365.14 679.00,364.18 C679.00,362.26 675.89,355.73 673.75,353.13 C673.01,352.23 671.13,348.90 669.57,345.73 C668.01,342.55 666.34,339.71 665.85,339.41 C665.36,339.10 663.37,335.63 661.43,331.68 C659.50,327.73 656.32,321.58 654.38,318.00 C652.44,314.42 649.68,309.25 648.26,306.50 C646.84,303.75 644.54,299.70 643.15,297.50 C640.38,293.13 638.19,289.15 631.05,275.50 C628.46,270.55 624.73,263.58 622.77,260.00 C620.80,256.42 616.85,249.23 613.99,244.00 C611.14,238.77 607.56,232.25 606.05,229.50 C604.54,226.75 601.37,220.90 599.00,216.50 C596.63,212.10 593.67,206.87 592.41,204.87 C591.16,202.88 589.43,199.73 588.58,197.87 C587.74,196.02 586.58,193.82 586.02,193.00 C585.46,192.18 584.53,190.38 583.95,189.00 C583.38,187.62 581.18,183.57 579.07,180.00 C576.96,176.43 572.57,168.32 569.31,162.00 C566.04,155.68 560.65,145.55 557.33,139.50 C554.00,133.45 549.36,124.90 547.00,120.50 C544.65,116.10 542.11,111.79 541.36,110.92 C540.61,110.05 540.00,108.70 539.99,107.92 C539.99,107.14 538.19,103.67 535.99,100.21 C533.80,96.75 532.00,93.60 531.99,93.21 C531.99,92.82 531.40,91.38 530.68,90.00 C527.68,84.25 518.52,67.17 516.21,63.00 C514.83,60.53 512.54,56.25 511.10,53.50 C509.43,50.29 507.76,48.39 506.42,48.20 C504.17,47.88 504.22,47.80 474.49,105.00 C467.49,118.47 459.95,132.88 457.75,137.00 C455.54,141.12 452.93,146.07 451.94,148.00 C450.94,149.93 446.56,158.25 442.20,166.50 C437.84,174.75 431.23,187.35 427.50,194.50 C423.77,201.65 418.58,211.55 415.97,216.50 C410.86,226.16 394.55,257.23 384.73,276.00 C381.42,282.33 378.38,287.95 377.97,288.50 C377.57,289.05 374.41,294.90 370.96,301.50 C340.93,358.93 297.42,437.62 294.61,439.60 C293.45,440.41 288.67,443.47 284.00,446.39 C223.09,484.52 169.14,522.13 152.63,537.98 C125.98,563.57 109.77,593.42 97.55,639.43 C89.55,669.52 82.09,718.16 78.03,766.58 C75.23,800.13 75.02,857.61 77.69,862.25 C78.49,863.65 80.86,863.01 81.36,861.25 ZM 400.00 392.56 C400.00,391.77 400.46,390.83 401.03,390.48 C401.59,390.13 403.87,386.17 406.09,381.67 C412.81,368.06 416.06,361.63 417.53,359.00 C418.30,357.62 419.67,354.92 420.57,353.00 C421.47,351.08 422.80,348.38 423.53,347.00 C424.26,345.62 428.09,338.20 432.03,330.50 C435.98,322.80 439.57,316.05 440.01,315.50 C440.45,314.95 444.74,306.85 449.55,297.50 C454.35,288.15 462.34,272.62 467.31,263.00 C472.28,253.38 481.18,236.05 487.10,224.50 C506.13,187.34 508.67,182.61 509.77,182.24 C511.03,181.82 512.91,185.02 523.75,206.00 C540.38,238.18 545.89,248.80 551.23,259.00 C554.25,264.77 560.67,277.15 565.49,286.50 C570.31,295.85 576.62,308.00 579.50,313.50 C582.38,319.00 588.47,330.70 593.02,339.50 C600.89,354.70 604.48,361.42 609.59,370.50 C612.94,376.45 619.00,389.08 619.00,390.10 C619.00,391.63 615.11,391.10 611.02,389.01 C608.87,387.91 603.60,385.89 599.31,384.50 C595.01,383.12 590.60,381.59 589.50,381.11 C586.57,379.81 576.83,377.27 566.00,374.97 C535.85,368.57 494.11,368.03 467.50,373.70 C463.65,374.52 455.54,376.23 449.49,377.50 C443.43,378.77 436.90,380.47 434.99,381.29 C433.07,382.10 429.70,383.23 427.50,383.79 C422.99,384.93 412.44,389.11 406.66,392.05 C402.09,394.37 400.00,394.53 400.00,392.56 Z" fill="rgb(34,134,210)"/>
<path d="M 0.00 512.00 L 0.00 0.00 L 512.00 0.00 L 1024.00 0.00 L 1024.00 512.00 L 1024.00 1024.00 L 512.00 1024.00 L 0.00 1024.00 L 0.00 512.00 ZM 80.86 866.25 C81.37,865.29 82.99,858.88 84.47,852.00 C85.95,845.12 90.30,826.67 94.15,811.00 C104.13,770.35 104.59,768.53 107.51,758.00 C109.77,749.89 112.43,740.07 113.35,736.50 C115.22,729.24 125.01,701.91 128.85,693.24 C143.66,659.75 164.59,642.26 197.50,635.86 C213.02,632.84 244.50,634.67 261.55,639.57 C266.01,640.86 266.76,641.47 267.89,644.76 C270.60,652.64 282.19,675.03 288.24,684.06 C299.20,700.43 319.87,724.00 323.27,724.00 C325.41,724.00 325.49,721.66 323.48,718.15 C315.40,704.09 311.92,671.63 316.02,648.50 C320.63,622.42 329.92,600.61 342.67,585.94 C352.68,574.41 368.95,560.13 377.49,555.38 C378.59,554.77 383.22,552.18 387.76,549.63 C392.31,547.08 396.81,544.58 397.76,544.06 C400.98,542.33 413.36,536.83 418.45,534.88 C421.23,533.81 424.40,532.55 425.50,532.06 C431.83,529.25 450.68,524.99 465.50,523.01 C475.55,521.68 540.78,521.60 545.79,522.92 C547.83,523.46 553.55,524.63 558.50,525.53 C575.43,528.59 601.40,537.14 615.66,544.34 C629.89,551.53 640.90,559.78 654.97,573.81 C674.22,593.01 683.83,607.91 691.37,630.24 C697.69,648.93 699.47,673.71 696.12,696.27 C695.00,703.84 693.39,711.49 692.56,713.27 C690.95,716.71 687.00,728.68 687.00,730.13 C687.00,732.09 689.10,730.56 698.43,721.81 C710.05,710.90 724.68,693.61 732.71,681.26 C740.46,669.36 754.00,642.38 754.00,638.84 C754.00,635.31 783.01,629.09 803.00,628.34 C832.49,627.22 852.42,633.64 870.24,649.98 C887.22,665.55 903.17,698.62 918.48,750.00 C920.53,756.88 923.76,767.67 925.66,774.00 C927.55,780.33 929.96,788.42 931.01,792.00 C932.06,795.58 933.83,801.42 934.95,805.00 C939.09,818.25 944.06,836.67 944.93,842.00 C946.02,848.65 947.60,853.00 948.94,853.00 C949.48,853.00 950.45,851.09 951.09,848.75 C952.44,843.78 951.75,796.77 950.12,783.00 C949.57,778.33 948.61,769.33 947.99,763.00 C947.38,756.67 946.47,748.80 945.98,745.50 C945.49,742.20 944.12,732.30 942.94,723.50 C941.75,714.70 940.16,705.83 939.41,703.78 C938.66,701.73 938.27,699.47 938.54,698.75 C939.01,697.53 938.33,693.85 933.01,669.00 C923.12,622.78 909.55,586.95 891.88,560.41 C884.29,549.01 864.93,528.40 856.00,522.20 C845.10,514.64 834.68,507.81 833.15,507.23 C832.24,506.89 830.63,505.79 829.56,504.80 C828.50,503.81 827.24,503.00 826.77,503.00 C826.30,503.00 824.70,502.15 823.21,501.11 C814.60,495.11 804.80,489.00 803.80,489.00 C803.15,489.00 801.70,488.14 800.56,487.09 C799.43,486.04 794.45,482.96 789.50,480.24 C784.55,477.53 777.47,473.44 773.77,471.16 C770.07,468.87 766.73,467.00 766.35,467.00 C765.97,467.00 764.95,466.37 764.08,465.60 C763.21,464.83 760.03,462.86 757.00,461.21 C751.26,458.09 730.59,446.64 728.01,445.16 C726.42,444.24 720.18,436.03 720.07,434.70 C720.00,433.96 709.43,415.65 697.89,396.31 C695.20,391.81 693.00,387.97 693.00,387.76 C693.00,387.56 689.78,381.57 685.85,374.45 C681.91,367.33 677.89,359.98 676.89,358.13 C675.90,356.28 674.49,354.03 673.75,353.13 C673.01,352.23 671.13,348.90 669.57,345.73 C668.01,342.55 666.34,339.71 665.85,339.41 C665.36,339.10 663.37,335.63 661.43,331.68 C659.50,327.73 656.32,321.58 654.38,318.00 C652.44,314.42 649.68,309.25 648.26,306.50 C646.84,303.75 644.54,299.70 643.15,297.50 C640.38,293.13 638.19,289.15 631.05,275.50 C628.46,270.55 624.73,263.58 622.77,260.00 C620.80,256.42 616.85,249.23 613.99,244.00 C611.14,238.77 607.56,232.25 606.05,229.50 C604.54,226.75 601.37,220.90 599.00,216.50 C596.63,212.10 593.67,206.87 592.41,204.87 C591.16,202.88 589.43,199.73 588.58,197.87 C587.74,196.02 586.58,193.82 586.02,193.00 C585.46,192.18 584.53,190.38 583.95,189.00 C583.38,187.62 581.18,183.57 579.07,180.00 C576.96,176.43 572.57,168.32 569.31,162.00 C566.04,155.68 560.65,145.55 557.33,139.50 C554.00,133.45 549.36,124.90 547.00,120.50 C544.65,116.10 542.11,111.79 541.36,110.92 C540.61,110.05 540.00,108.70 539.99,107.92 C539.99,107.14 538.19,103.67 535.99,100.21 C533.80,96.75 532.00,93.60 531.99,93.21 C531.99,92.82 531.40,91.38 530.68,90.00 C527.68,84.25 518.52,67.17 516.21,63.00 C514.83,60.53 512.54,56.25 511.10,53.50 C509.43,50.29 507.76,48.39 506.42,48.20 C504.17,47.88 504.22,47.80 474.49,105.00 C467.49,118.47 459.95,132.88 457.75,137.00 C455.54,141.12 452.93,146.07 451.94,148.00 C450.94,149.93 446.56,158.25 442.20,166.50 C437.84,174.75 431.23,187.35 427.50,194.50 C423.77,201.65 418.58,211.55 415.97,216.50 C410.86,226.16 394.55,257.23 384.73,276.00 C381.42,282.33 378.38,287.95 377.97,288.50 C377.57,289.05 374.41,294.90 370.96,301.50 C340.93,358.93 297.42,437.62 294.61,439.60 C293.45,440.41 288.67,443.47 284.00,446.39 C223.09,484.52 169.14,522.13 152.63,537.98 C113.24,575.80 94.45,626.02 82.04,726.64 C76.82,768.96 72.76,830.98 74.90,835.68 C75.51,837.01 76.00,843.41 76.00,849.90 C76.00,864.65 78.05,871.55 80.86,866.25 ZM 401.00 392.41 C401.00,391.80 414.97,363.57 417.53,359.00 C418.30,357.62 419.67,354.92 420.57,353.00 C421.47,351.08 422.80,348.38 423.53,347.00 C424.26,345.62 428.09,338.20 432.03,330.50 C435.98,322.80 439.57,316.05 440.01,315.50 C440.45,314.95 444.74,306.85 449.55,297.50 C454.35,288.15 462.34,272.62 467.31,263.00 C472.28,253.38 481.18,236.05 487.10,224.50 C506.13,187.34 508.67,182.61 509.77,182.24 C511.03,181.82 512.91,185.02 523.75,206.00 C540.92,239.23 545.91,248.84 550.72,258.00 C553.46,263.23 560.47,276.73 566.29,288.00 C572.12,299.27 580.06,314.58 583.95,322.00 C587.84,329.42 592.41,338.42 594.10,342.00 C595.80,345.58 601.90,357.84 607.67,369.25 C613.43,380.66 617.98,390.00 617.77,390.00 C617.56,390.00 613.52,388.44 608.79,386.53 C590.42,379.12 563.52,372.40 543.00,370.07 C497.94,364.97 453.47,371.28 410.59,388.86 C405.31,391.03 401.00,392.62 401.00,392.41 Z" fill="rgb(159,193,219)"/>
<path d="M 0.00 512.00 L 0.00 0.00 L 512.00 0.00 L 1024.00 0.00 L 1024.00 512.00 L 1024.00 1024.00 L 512.00 1024.00 L 0.00 1024.00 L 0.00 512.00 ZM 85.01 863.69 C85.02,859.39 89.56,839.34 97.06,810.50 C99.34,801.70 101.66,792.47 102.21,790.00 C107.97,763.78 118.80,724.90 124.49,710.00 C125.23,708.08 126.98,703.48 128.40,699.79 C131.39,691.95 139.76,676.53 144.66,669.81 C146.54,667.23 151.52,661.91 155.71,657.99 C164.79,649.52 178.70,642.23 192.00,638.98 C209.04,634.82 235.51,635.42 257.57,640.46 L 264.65 642.08 L 266.47 648.29 C268.43,654.94 277.26,673.40 279.59,675.73 C280.37,676.51 281.00,677.52 281.00,677.97 C281.00,678.75 293.68,696.94 294.96,698.00 C295.30,698.28 296.60,699.85 297.87,701.50 C310.21,717.58 330.08,736.30 332.94,734.54 C334.41,733.63 334.26,731.41 332.62,729.76 C330.80,727.95 325.46,717.60 323.59,712.27 C312.13,679.63 316.07,635.91 333.35,604.00 C341.49,588.96 356.64,572.88 372.69,562.24 C394.38,547.85 398.32,545.69 415.70,538.63 C444.99,526.72 462.10,524.00 507.50,524.04 C544.64,524.07 558.31,526.06 587.50,535.68 C606.94,542.08 615.96,546.27 628.00,554.49 C639.45,562.30 645.92,567.75 655.87,577.93 C679.40,602.03 691.15,627.55 694.15,661.11 C695.23,673.14 695.17,676.88 693.69,689.72 C691.96,704.86 690.78,710.43 686.32,724.66 C682.40,737.17 684.20,737.64 696.16,727.19 C709.32,715.70 723.91,698.54 736.88,679.32 C742.85,670.47 754.13,648.36 755.52,642.79 C755.89,641.30 756.71,639.66 757.35,639.15 C758.80,637.97 772.68,634.08 777.71,633.44 C779.79,633.17 784.42,632.47 788.00,631.88 C799.17,630.04 822.21,630.54 832.69,632.86 C842.49,635.02 854.10,639.89 861.17,644.80 C878.23,656.65 892.83,681.66 906.24,722.00 C916.89,754.01 925.38,781.38 926.56,787.50 C927.31,791.32 933.00,810.51 933.98,812.50 C934.52,813.60 935.38,816.30 935.89,818.50 C938.38,829.25 943.92,849.05 945.14,851.62 C946.11,853.63 947.26,854.50 948.97,854.50 C953.50,854.50 954.21,849.05 953.66,818.50 C953.17,791.42 951.64,771.44 947.92,743.50 C946.82,735.25 945.29,723.55 944.51,717.50 C942.51,701.88 940.67,692.15 935.63,670.50 C922.37,613.54 912.91,587.87 895.25,561.00 C886.39,547.51 869.04,528.84 858.00,520.91 C855.53,519.13 853.28,517.36 853.00,516.97 C852.42,516.15 837.17,506.14 828.69,501.00 C825.50,499.08 818.31,494.52 812.70,490.88 C802.86,484.50 762.59,461.00 761.49,461.00 C761.20,461.00 759.10,459.76 756.83,458.25 C754.56,456.74 747.10,452.56 740.25,448.97 L 727.80 442.43 L 719.30 427.97 C706.80,406.69 694.98,385.85 688.98,374.50 C686.08,369.00 683.09,363.79 682.35,362.92 C681.61,362.05 681.00,361.06 681.00,360.72 C681.00,360.39 679.49,357.50 677.64,354.30 C674.60,349.07 668.27,337.37 664.20,329.50 C663.35,327.85 662.35,326.27 661.96,326.00 C661.58,325.73 659.47,322.09 657.27,317.93 C655.08,313.76 652.61,309.26 651.79,307.93 C650.97,306.59 645.79,297.17 640.28,287.00 C634.78,276.83 626.33,261.30 621.52,252.50 C616.71,243.70 610.06,231.32 606.75,225.00 C597.84,207.97 594.83,202.50 588.32,191.50 C586.69,188.75 582.52,181.10 579.06,174.50 C575.60,167.90 572.42,162.05 571.99,161.50 C571.56,160.95 568.52,155.29 565.24,148.91 C561.96,142.54 558.02,135.18 556.48,132.56 C552.34,125.49 550.22,121.55 542.39,106.32 C538.48,98.72 534.34,90.93 533.19,89.00 C532.04,87.07 528.27,79.88 524.80,73.02 C521.34,66.16 517.69,59.64 516.71,58.53 C515.72,57.43 513.48,53.72 511.74,50.29 C506.69,40.35 504.51,40.81 498.18,53.16 C495.84,57.75 490.29,68.47 485.85,77.00 C481.42,85.53 474.55,98.80 470.58,106.50 C466.61,114.20 461.19,124.55 458.52,129.50 C455.85,134.45 450.44,144.86 446.49,152.63 C442.54,160.40 438.40,168.05 437.30,169.63 C436.19,171.21 433.72,175.65 431.82,179.50 C429.92,183.35 425.06,192.80 421.04,200.50 C417.01,208.20 409.90,221.93 405.23,231.00 C400.56,240.07 396.36,247.99 395.88,248.59 C395.41,249.19 390.91,257.74 385.88,267.59 C375.62,287.69 372.10,294.36 369.85,298.00 C367.68,301.50 350.66,332.65 348.26,337.50 C343.07,348.01 333.70,365.55 333.03,366.00 C332.62,366.27 329.36,372.35 325.79,379.50 C318.85,393.40 307.44,414.14 299.11,428.00 C296.30,432.67 293.89,436.77 293.75,437.11 C293.61,437.44 286.98,441.65 279.00,446.47 C271.02,451.28 261.72,457.19 258.32,459.61 C254.92,462.02 251.85,464.00 251.48,464.00 C251.12,464.00 248.95,465.30 246.66,466.88 C244.37,468.47 235.75,474.15 227.50,479.51 C219.25,484.86 212.27,489.56 212.00,489.96 C211.73,490.35 209.02,492.26 206.00,494.20 C202.98,496.14 197.94,499.70 194.81,502.11 C191.68,504.53 184.26,509.88 178.31,514.00 C145.77,536.57 129.05,555.81 112.27,590.00 C103.49,607.88 90.74,650.37 86.91,674.50 C86.39,677.80 84.86,687.47 83.51,696.00 C76.46,740.55 72.66,790.69 73.27,831.00 C73.61,854.02 74.02,860.50 75.37,864.68 C76.38,867.82 77.72,870.03 78.77,870.28 C80.98,870.83 85.00,866.58 85.01,863.69 ZM 406.00 388.53 C406.00,388.26 409.37,381.17 413.49,372.77 C420.15,359.17 425.12,349.53 439.82,321.59 C442.11,317.23 444.67,312.92 445.49,312.01 C446.32,311.09 447.00,309.82 447.00,309.18 C447.00,308.55 450.42,301.38 454.61,293.26 C458.79,285.14 468.71,265.75 476.66,250.17 C484.60,234.59 494.17,215.91 497.91,208.67 C501.65,201.43 505.73,193.51 506.97,191.07 L 509.22 186.64 L 511.13 189.07 C512.18,190.41 515.90,197.12 519.40,204.00 C522.90,210.88 527.89,220.55 530.50,225.50 C538.14,240.00 548.49,260.00 559.99,282.50 C577.83,317.42 586.08,333.22 589.48,339.00 C595.33,348.94 613.18,384.15 612.64,384.69 C612.35,384.98 609.05,384.06 605.31,382.65 C571.88,370.01 528.04,363.84 493.50,366.90 C472.95,368.73 446.93,373.47 438.50,376.93 C437.40,377.38 433.80,378.53 430.50,379.49 C424.97,381.09 419.46,383.19 409.75,387.40 C407.69,388.30 406.00,388.80 406.00,388.53 Z" fill="rgb(200,201,157)"/>
<path d="M 0.00 512.00 L 0.00 0.00 L 512.00 0.00 L 1024.00 0.00 L 1024.00 512.00 L 1024.00 1024.00 L 512.00 1024.00 L 0.00 1024.00 L 0.00 512.00 ZM 85.01 863.69 C85.02,859.39 89.56,839.34 97.06,810.50 C99.34,801.70 101.66,792.47 102.21,790.00 C107.97,763.78 118.80,724.90 124.49,710.00 C125.23,708.08 126.98,703.48 128.40,699.79 C131.39,691.95 139.76,676.53 144.66,669.81 C146.54,667.23 151.52,661.91 155.71,657.99 C164.79,649.52 178.70,642.23 192.00,638.98 C209.04,634.82 235.51,635.42 257.57,640.46 L 264.65 642.08 L 266.47 648.29 C268.43,654.94 277.26,673.40 279.59,675.73 C280.37,676.51 281.00,677.52 281.00,677.97 C281.00,678.75 293.68,696.94 294.96,698.00 C295.30,698.28 296.60,699.85 297.87,701.50 C310.21,717.58 330.08,736.30 332.94,734.54 C334.41,733.63 334.26,731.41 332.62,729.76 C330.80,727.95 325.46,717.60 323.59,712.27 C312.13,679.63 316.07,635.91 333.35,604.00 C341.49,588.96 356.64,572.88 372.69,562.24 C394.38,547.85 398.32,545.69 415.70,538.63 C444.99,526.72 462.10,524.00 507.50,524.04 C544.64,524.07 558.31,526.06 587.50,535.68 C606.94,542.08 615.96,546.27 628.00,554.49 C639.45,562.30 645.92,567.75 655.87,577.93 C679.40,602.03 691.15,627.55 694.15,661.11 C695.23,673.14 695.17,676.88 693.69,689.72 C691.96,704.86 690.78,710.43 686.32,724.66 C682.40,737.17 684.20,737.64 696.16,727.19 C709.32,715.70 723.91,698.54 736.88,679.32 C742.85,670.47 754.13,648.36 755.52,642.79 C755.89,641.30 756.71,639.66 757.35,639.15 C758.80,637.97 772.68,634.08 777.71,633.44 C779.79,633.17 784.42,632.47 788.00,631.88 C799.17,630.04 822.21,630.54 832.69,632.86 C842.49,635.02 854.10,639.89 861.17,644.80 C878.23,656.65 892.83,681.66 906.24,722.00 C916.89,754.01 925.38,781.38 926.56,787.50 C927.31,791.32 933.00,810.51 933.98,812.50 C934.52,813.60 935.38,816.30 935.89,818.50 C938.38,829.25 943.92,849.05 945.14,851.62 C946.11,853.63 947.26,854.50 948.97,854.50 C953.50,854.50 954.21,849.05 953.66,818.50 C953.17,791.42 951.64,771.44 947.92,743.50 C946.82,735.25 945.29,723.55 944.51,717.50 C942.51,701.88 940.67,692.15 935.63,670.50 C922.37,613.54 912.91,587.87 895.25,561.00 C886.39,547.51 869.04,528.84 858.00,520.91 C855.53,519.13 853.28,517.36 853.00,516.97 C852.42,516.15 837.17,506.14 828.69,501.00 C825.50,499.08 818.31,494.52 812.70,490.88 C802.86,484.50 762.59,461.00 761.49,461.00 C761.20,461.00 759.10,459.76 756.83,458.25 C754.56,456.74 747.10,452.56 740.25,448.97 L 727.80 442.43 L 719.30 427.97 C706.80,406.69 694.98,385.85 688.98,374.50 C686.08,369.00 683.09,363.79 682.35,362.92 C681.61,362.05 681.00,361.06 681.00,360.72 C681.00,360.39 679.49,357.50 677.64,354.30 C674.60,349.07 668.27,337.37 664.20,329.50 C663.35,327.85 662.35,326.27 661.96,326.00 C661.58,325.73 659.47,322.09 657.27,317.93 C655.08,313.76 652.61,309.26 651.79,307.93 C650.97,306.59 645.79,297.17 640.28,287.00 C634.78,276.83 626.33,261.30 621.52,252.50 C616.71,243.70 610.06,231.32 606.75,225.00 C597.84,207.97 594.83,202.50 588.32,191.50 C586.69,188.75 582.52,181.10 579.06,174.50 C575.60,167.90 572.42,162.05 571.99,161.50 C571.56,160.95 568.52,155.29 565.24,148.91 C561.96,142.54 558.02,135.18 556.48,132.56 C552.34,125.49 550.22,121.55 542.39,106.32 C538.48,98.72 534.34,90.93 533.19,89.00 C532.04,87.07 528.27,79.88 524.80,73.02 C521.34,66.16 517.69,59.64 516.71,58.53 C515.72,57.43 513.48,53.72 511.74,50.29 C506.69,40.35 504.51,40.81 498.18,53.16 C495.84,57.75 490.29,68.47 485.85,77.00 C481.42,85.53 474.55,98.80 470.58,106.50 C466.61,114.20 461.19,124.55 458.52,129.50 C455.85,134.45 450.44,144.86 446.49,152.63 C442.54,160.40 438.40,168.05 437.30,169.63 C436.19,171.21 433.72,175.65 431.82,179.50 C429.92,183.35 425.06,192.80 421.04,200.50 C417.01,208.20 409.90,221.93 405.23,231.00 C400.56,240.07 396.36,247.99 395.88,248.59 C395.41,249.19 390.91,257.74 385.88,267.59 C375.62,287.69 372.10,294.36 369.85,298.00 C367.68,301.50 350.66,332.65 348.26,337.50 C343.07,348.01 333.70,365.55 333.03,366.00 C332.62,366.27 329.36,372.35 325.79,379.50 C318.85,393.40 307.44,414.14 299.11,428.00 C296.30,432.67 293.89,436.77 293.75,437.11 C293.61,437.44 286.98,441.65 279.00,446.47 C271.02,451.28 261.72,457.19 258.32,459.61 C254.92,462.02 251.85,464.00 251.48,464.00 C251.12,464.00 248.95,465.30 246.66,466.88 C244.37,468.47 235.75,474.15 227.50,479.51 C219.25,484.86 212.27,489.56 212.00,489.96 C211.73,490.35 209.02,492.26 206.00,494.20 C202.98,496.14 197.94,499.70 194.81,502.11 C191.68,504.53 184.26,509.88 178.31,514.00 C145.77,536.57 129.05,555.81 112.27,590.00 C103.49,607.88 90.74,650.37 86.91,674.50 C86.39,677.80 84.86,687.47 83.51,696.00 C76.46,740.55 72.66,790.69 73.27,831.00 C73.61,854.02 74.02,860.50 75.37,864.68 C76.38,867.82 77.72,870.03 78.77,870.28 C80.98,870.83 85.00,866.58 85.01,863.69 ZM 393.53 752.25 C393.16,751.29 391.79,746.67 390.51,742.00 C389.22,737.33 386.10,726.30 383.58,717.50 C379.08,701.80 373.03,680.40 370.87,672.50 C370.26,670.30 369.32,667.27 368.77,665.77 C367.22,661.53 368.45,658.81 376.18,649.31 C390.45,631.79 404.16,619.44 420.88,609.03 C429.12,603.91 443.08,596.95 448.00,595.51 C449.38,595.11 451.85,594.20 453.50,593.50 C460.42,590.57 476.06,586.81 488.50,585.09 C504.67,582.86 532.48,584.21 547.00,587.93 C580.47,596.51 601.05,607.48 626.78,630.46 C628.62,632.11 642.35,647.53 648.84,655.25 C650.97,657.78 650.58,660.80 645.99,677.50 C643.73,685.75 641.22,694.86 640.44,697.75 C638.57,704.58 636.08,713.59 634.85,718.00 C634.31,719.92 633.48,723.08 633.01,725.00 C632.54,726.92 630.97,732.72 629.54,737.88 C628.10,743.04 627.07,747.40 627.24,747.57 C628.34,748.68 630.20,745.62 630.97,741.42 C631.47,738.71 633.05,732.67 634.48,728.00 C635.91,723.33 638.18,715.45 639.53,710.50 C640.88,705.55 644.22,693.90 646.94,684.60 C649.66,675.31 652.19,665.33 652.55,662.43 L 653.21 657.16 L 647.37 649.83 C634.55,633.72 619.13,619.37 604.16,609.61 C597.32,605.15 582.67,597.40 580.00,596.82 C579.17,596.64 578.23,596.13 577.89,595.67 C576.77,594.14 551.02,585.95 544.22,584.96 C540.52,584.42 535.03,583.57 532.00,583.06 C524.69,581.84 507.38,581.82 492.10,583.01 C477.75,584.13 462.93,587.45 449.90,592.48 C440.04,596.29 418.76,607.09 416.33,609.53 C415.51,610.34 413.87,611.53 412.67,612.16 C404.87,616.29 385.01,635.11 373.96,648.84 C366.15,658.54 364.17,661.84 365.58,662.82 C366.12,663.19 367.15,666.42 367.87,670.00 C368.59,673.57 369.49,676.72 369.87,677.00 C370.25,677.27 372.00,683.12 373.75,690.00 C378.32,707.92 380.43,715.22 381.68,717.50 C382.28,718.60 383.33,722.20 384.00,725.50 C384.68,728.80 385.85,732.72 386.61,734.20 C387.38,735.69 388.00,738.25 388.00,739.89 C388.00,741.54 388.45,743.16 389.00,743.50 C389.55,743.84 390.00,744.92 390.00,745.91 C390.00,746.89 390.71,749.11 391.57,750.85 C393.24,754.18 394.69,755.22 393.53,752.25 ZM 406.00 388.53 C406.00,388.26 409.37,381.17 413.49,372.77 C420.15,359.17 425.12,349.53 439.82,321.59 C442.11,317.23 444.67,312.92 445.49,312.01 C446.32,311.09 447.00,309.82 447.00,309.18 C447.00,308.55 450.42,301.38 454.61,293.26 C458.79,285.14 468.71,265.75 476.66,250.17 C484.60,234.59 494.17,215.91 497.91,208.67 C501.65,201.43 505.73,193.51 506.97,191.07 L 509.22 186.64 L 511.13 189.07 C512.18,190.41 515.90,197.12 519.40,204.00 C522.90,210.88 527.89,220.55 530.50,225.50 C538.14,240.00 548.49,260.00 559.99,282.50 C577.83,317.42 586.08,333.22 589.48,339.00 C595.33,348.94 613.18,384.15 612.64,384.69 C612.35,384.98 609.05,384.06 605.31,382.65 C571.88,370.01 528.04,363.84 493.50,366.90 C472.95,368.73 446.93,373.47 438.50,376.93 C437.40,377.38 433.80,378.53 430.50,379.49 C424.97,381.09 419.46,383.19 409.75,387.40 C407.69,388.30 406.00,388.80 406.00,388.53 Z" fill="rgb(206,173,177)"/>
<path d="M 0.00 512.00 L 0.00 0.00 L 512.00 0.00 L 1024.00 0.00 L 1024.00 512.00 L 1024.00 1024.00 L 512.00 1024.00 L 0.00 1024.00 L 0.00 512.00 ZM 512.00 969.21 C512.00,968.23 513.35,963.10 515.00,957.81 C516.65,952.53 520.27,939.27 523.04,928.35 C525.81,917.43 529.16,904.90 530.49,900.50 C531.81,896.10 533.31,890.70 533.83,888.50 C536.03,879.02 547.41,835.89 552.55,817.50 C554.54,810.35 557.92,797.58 560.05,789.13 C563.88,773.89 564.48,772.15 565.56,773.22 C566.56,774.22 574.95,794.02 586.22,822.00 C592.32,837.12 597.80,849.83 598.40,850.23 C599.01,850.64 599.91,850.84 600.42,850.68 C600.93,850.52 603.05,844.11 605.14,836.44 C607.24,828.77 610.30,817.78 611.96,812.00 C613.62,806.22 615.81,797.90 616.84,793.50 C617.87,789.10 621.43,775.83 624.75,764.00 C628.07,752.17 631.03,741.15 631.33,739.50 C631.62,737.85 633.03,732.67 634.47,728.00 C635.91,723.33 638.18,715.45 639.53,710.50 C640.88,705.55 644.22,693.90 646.94,684.60 C649.66,675.31 652.19,665.33 652.55,662.43 L 653.21 657.16 L 647.37 649.83 C634.55,633.72 619.13,619.37 604.16,609.61 C597.32,605.15 582.67,597.40 580.00,596.82 C579.17,596.64 578.23,596.13 577.89,595.67 C576.77,594.14 551.02,585.95 544.22,584.96 C540.52,584.42 535.03,583.57 532.00,583.06 C524.69,581.84 507.38,581.82 492.10,583.01 C477.75,584.13 462.93,587.45 449.90,592.48 C440.04,596.29 418.76,607.09 416.33,609.53 C415.51,610.34 413.87,611.53 412.67,612.16 C404.87,616.29 385.01,635.11 373.96,648.84 C366.15,658.54 364.17,661.84 365.58,662.82 C366.12,663.19 367.15,666.42 367.87,670.00 C368.59,673.57 369.49,676.72 369.87,677.00 C370.25,677.27 372.00,683.12 373.75,690.00 C378.32,707.92 380.43,715.22 381.68,717.50 C382.28,718.60 383.33,722.20 384.00,725.50 C384.68,728.80 385.85,732.72 386.61,734.20 C387.38,735.69 388.00,738.25 388.00,739.89 C388.00,741.54 388.45,743.16 389.00,743.50 C389.55,743.84 390.00,744.98 390.00,746.04 C390.00,747.09 391.29,752.58 392.87,758.23 C394.45,763.88 397.17,773.67 398.92,780.00 C400.67,786.33 404.51,799.83 407.46,810.00 C416.27,840.42 417.11,843.37 417.86,846.50 C418.36,848.56 419.19,849.50 420.53,849.50 C422.63,849.50 424.75,845.69 430.51,831.50 C432.30,827.10 435.79,819.22 438.27,814.00 C440.74,808.78 445.35,798.65 448.50,791.50 C451.66,784.35 454.56,778.14 454.97,777.70 C455.37,777.26 456.72,780.64 457.97,785.20 C459.22,789.77 461.32,797.02 462.63,801.33 C463.94,805.64 464.75,809.59 464.42,810.12 C464.10,810.65 464.28,811.63 464.84,812.30 C465.39,812.97 467.26,819.36 469.00,826.51 C470.74,833.65 474.60,848.28 477.59,859.00 C484.08,882.29 485.61,888.00 491.63,911.50 C494.17,921.40 497.04,931.97 498.00,935.00 C498.97,938.03 500.32,942.97 501.00,946.00 C501.67,949.03 502.81,953.30 503.52,955.50 C504.24,957.70 505.11,961.30 505.46,963.50 C506.54,970.17 506.99,971.00 509.57,971.00 C511.24,971.00 512.00,970.44 512.00,969.21 ZM 85.01 863.69 C85.02,859.39 89.56,839.34 97.06,810.50 C99.34,801.70 101.66,792.47 102.21,790.00 C107.97,763.78 118.80,724.90 124.49,710.00 C125.23,708.08 126.98,703.48 128.40,699.79 C131.39,691.95 139.76,676.53 144.66,669.81 C146.54,667.23 151.52,661.91 155.71,657.99 C164.79,649.52 178.70,642.23 192.00,638.98 C209.04,634.82 235.51,635.42 257.57,640.46 L 264.65 642.08 L 266.47 648.29 C268.43,654.94 277.26,673.40 279.59,675.73 C280.37,676.51 281.00,677.52 281.00,677.97 C281.00,678.75 293.68,696.94 294.96,698.00 C295.30,698.28 296.60,699.85 297.87,701.50 C310.21,717.58 330.08,736.30 332.94,734.54 C334.41,733.63 334.26,731.41 332.62,729.76 C330.80,727.95 325.46,717.60 323.59,712.27 C312.13,679.63 316.07,635.91 333.35,604.00 C341.49,588.96 356.64,572.88 372.69,562.24 C394.38,547.85 398.32,545.69 415.70,538.63 C444.99,526.72 462.10,524.00 507.50,524.04 C544.64,524.07 558.31,526.06 587.50,535.68 C606.94,542.08 615.96,546.27 628.00,554.49 C639.45,562.30 645.92,567.75 655.87,577.93 C679.40,602.03 691.15,627.55 694.15,661.11 C695.23,673.14 695.17,676.88 693.69,689.72 C691.96,704.86 690.78,710.43 686.32,724.66 C682.40,737.17 684.20,737.64 696.16,727.19 C709.32,715.70 723.91,698.54 736.88,679.32 C742.85,670.47 754.13,648.36 755.52,642.79 C755.89,641.30 756.71,639.66 757.35,639.15 C758.80,637.97 772.68,634.08 777.71,633.44 C779.79,633.17 784.42,632.47 788.00,631.88 C799.17,630.04 822.21,630.54 832.69,632.86 C842.49,635.02 854.10,639.89 861.17,644.80 C878.23,656.65 892.83,681.66 906.24,722.00 C916.89,754.01 925.38,781.38 926.56,787.50 C927.31,791.32 933.00,810.51 933.98,812.50 C934.52,813.60 935.38,816.30 935.89,818.50 C938.38,829.25 943.92,849.05 945.14,851.62 C946.11,853.63 947.26,854.50 948.97,854.50 C953.50,854.50 954.21,849.05 953.66,818.50 C953.17,791.42 951.64,771.44 947.92,743.50 C946.82,735.25 945.29,723.55 944.51,717.50 C942.51,701.88 940.67,692.15 935.63,670.50 C922.37,613.54 912.91,587.87 895.25,561.00 C886.39,547.51 869.04,528.84 858.00,520.91 C855.53,519.13 853.28,517.36 853.00,516.97 C852.42,516.15 837.17,506.14 828.69,501.00 C825.50,499.08 818.31,494.52 812.70,490.88 C802.86,484.50 762.59,461.00 761.49,461.00 C761.20,461.00 759.10,459.76 756.83,458.25 C754.56,456.74 747.10,452.56 740.25,448.97 L 727.80 442.43 L 719.30 427.97 C706.80,406.69 694.98,385.85 688.98,374.50 C686.08,369.00 683.09,363.79 682.35,362.92 C681.61,362.05 681.00,361.06 681.00,360.72 C681.00,360.39 679.49,357.50 677.64,354.30 C674.60,349.07 668.27,337.37 664.20,329.50 C663.35,327.85 662.35,326.27 661.96,326.00 C661.58,325.73 659.47,322.09 657.27,317.93 C655.08,313.76 652.61,309.26 651.79,307.93 C650.97,306.59 645.79,297.17 640.28,287.00 C634.78,276.83 626.33,261.30 621.52,252.50 C616.71,243.70 610.06,231.32 606.75,225.00 C597.84,207.97 594.83,202.50 588.32,191.50 C586.69,188.75 582.52,181.10 579.06,174.50 C575.60,167.90 572.42,162.05 571.99,161.50 C571.56,160.95 568.52,155.29 565.24,148.91 C561.96,142.54 558.02,135.18 556.48,132.56 C552.34,125.49 550.22,121.55 542.39,106.32 C538.48,98.72 534.34,90.93 533.19,89.00 C532.04,87.07 528.27,79.88 524.80,73.02 C521.34,66.16 517.69,59.64 516.71,58.53 C515.72,57.43 513.48,53.72 511.74,50.29 C506.69,40.35 504.51,40.81 498.18,53.16 C495.84,57.75 490.29,68.47 485.85,77.00 C481.42,85.53 474.55,98.80 470.58,106.50 C466.61,114.20 461.19,124.55 458.52,129.50 C455.85,134.45 450.44,144.86 446.49,152.63 C442.54,160.40 438.40,168.05 437.30,169.63 C436.19,171.21 433.72,175.65 431.82,179.50 C429.92,183.35 425.06,192.80 421.04,200.50 C417.01,208.20 409.90,221.93 405.23,231.00 C400.56,240.07 396.36,247.99 395.88,248.59 C395.41,249.19 390.91,257.74 385.88,267.59 C375.62,287.69 372.10,294.36 369.85,298.00 C367.68,301.50 350.66,332.65 348.26,337.50 C343.07,348.01 333.70,365.55 333.03,366.00 C332.62,366.27 329.36,372.35 325.79,379.50 C318.85,393.40 307.44,414.14 299.11,428.00 C296.30,432.67 293.89,436.77 293.75,437.11 C293.61,437.44 286.98,441.65 279.00,446.47 C271.02,451.28 261.72,457.19 258.32,459.61 C254.92,462.02 251.85,464.00 251.48,464.00 C251.12,464.00 248.95,465.30 246.66,466.88 C244.37,468.47 235.75,474.15 227.50,479.51 C219.25,484.86 212.27,489.56 212.00,489.96 C211.73,490.35 209.02,492.26 206.00,494.20 C202.98,496.14 197.94,499.70 194.81,502.11 C191.68,504.53 184.26,509.88 178.31,514.00 C145.77,536.57 129.05,555.81 112.27,590.00 C103.49,607.88 90.74,650.37 86.91,674.50 C86.39,677.80 84.86,687.47 83.51,696.00 C76.46,740.55 72.66,790.69 73.27,831.00 C73.61,854.02 74.02,860.50 75.37,864.68 C76.38,867.82 77.72,870.03 78.77,870.28 C80.98,870.83 85.00,866.58 85.01,863.69 ZM 508.65 967.89 C508.43,967.13 506.90,960.88 505.24,954.00 C502.60,943.04 497.39,923.14 492.67,906.00 C491.84,902.97 489.34,893.53 487.12,885.00 C484.90,876.47 480.81,860.95 478.03,850.50 C475.26,840.05 472.03,827.90 470.87,823.50 C469.70,819.10 467.94,812.58 466.97,809.00 C465.99,805.42 464.20,798.67 462.99,794.00 C461.78,789.33 460.20,783.47 459.48,781.00 C458.76,778.53 457.90,775.26 457.57,773.75 C456.93,770.85 455.58,770.15 454.68,772.25 C454.38,772.94 451.03,780.47 447.24,789.00 C443.44,797.53 436.36,813.50 431.51,824.50 C423.20,843.32 421.13,847.47 420.42,846.75 C420.25,846.59 417.11,835.66 413.43,822.48 C409.75,809.29 405.86,795.35 404.78,791.50 C403.70,787.65 402.46,783.15 402.02,781.50 C401.58,779.85 399.10,771.30 396.51,762.50 C393.92,753.70 390.98,743.58 389.99,740.00 C389.00,736.42 386.12,726.30 383.59,717.50 C379.18,702.14 373.17,680.91 370.87,672.50 C370.26,670.30 369.32,667.27 368.77,665.77 C367.22,661.53 368.45,658.81 376.18,649.31 C390.45,631.79 404.16,619.44 420.88,609.03 C429.12,603.91 443.08,596.95 448.00,595.51 C449.38,595.11 451.85,594.20 453.50,593.50 C460.42,590.57 476.06,586.81 488.50,585.09 C504.67,582.86 532.48,584.21 547.00,587.93 C580.47,596.51 601.05,607.48 626.78,630.46 C628.62,632.11 642.35,647.53 648.84,655.25 C650.97,657.78 650.58,660.80 645.99,677.50 C643.73,685.75 641.25,694.75 640.50,697.50 C638.12,706.20 635.86,714.38 634.85,718.00 C634.31,719.92 633.48,723.08 633.00,725.00 C632.04,728.89 627.70,745.50 625.43,754.00 C624.62,757.03 619.05,777.50 613.06,799.50 C607.06,821.50 601.66,841.41 601.04,843.75 C600.43,846.09 599.56,848.00 599.12,848.00 C598.68,848.00 597.75,846.09 597.05,843.75 C595.43,838.30 595.12,837.51 582.16,806.00 C576.17,791.42 570.11,776.59 568.70,773.02 C567.29,769.46 565.72,766.41 565.20,766.23 C564.26,765.92 563.34,769.07 553.94,804.50 C551.17,814.95 546.26,833.17 543.03,845.00 C539.80,856.83 535.81,871.67 534.15,878.00 C532.50,884.33 530.16,893.10 528.95,897.50 C527.75,901.90 525.29,911.12 523.48,918.00 C521.68,924.88 519.24,934.03 518.07,938.35 C508.95,971.93 509.40,970.52 508.65,967.89 ZM 406.00 388.53 C406.00,388.26 409.37,381.17 413.49,372.77 C420.15,359.17 425.12,349.53 439.82,321.59 C442.11,317.23 444.67,312.92 445.49,312.01 C446.32,311.09 447.00,309.82 447.00,309.18 C447.00,308.55 450.42,301.38 454.61,293.26 C458.79,285.14 468.71,265.75 476.66,250.17 C484.60,234.59 494.17,215.91 497.91,208.67 C501.65,201.43 505.73,193.51 506.97,191.07 L 509.22 186.64 L 511.13 189.07 C512.18,190.41 515.90,197.12 519.40,204.00 C522.90,210.88 527.89,220.55 530.50,225.50 C538.14,240.00 548.49,260.00 559.99,282.50 C577.83,317.42 586.08,333.22 589.48,339.00 C595.33,348.94 613.18,384.15 612.64,384.69 C612.35,384.98 609.05,384.06 605.31,382.65 C571.88,370.01 528.04,363.84 493.50,366.90 C472.95,368.73 446.93,373.47 438.50,376.93 C437.40,377.38 433.80,378.53 430.50,379.49 C424.97,381.09 419.46,383.19 409.75,387.40 C407.69,388.30 406.00,388.80 406.00,388.53 Z" fill="rgb(210,85,81)"/>
<path d="M 0.00 512.00 L 0.00 0.00 L 512.00 0.00 L 1024.00 0.00 L 1024.00 512.00 L 1024.00 1024.00 L 512.00 1024.00 L 0.00 1024.00 L 0.00 512.00 ZM 512.00 969.21 C512.00,968.23 513.35,963.10 515.00,957.81 C516.65,952.53 520.27,939.27 523.04,928.35 C525.81,917.43 529.16,904.90 530.49,900.50 C531.81,896.10 533.31,890.70 533.83,888.50 C536.03,879.02 547.41,835.89 552.55,817.50 C554.54,810.35 557.92,797.58 560.05,789.13 C563.88,773.89 564.48,772.15 565.56,773.22 C566.56,774.22 574.95,794.02 586.22,822.00 C592.32,837.12 597.80,849.83 598.40,850.23 C599.01,850.64 599.91,850.84 600.42,850.68 C600.93,850.52 603.05,844.11 605.14,836.44 C607.24,828.77 610.30,817.78 611.96,812.00 C613.62,806.22 615.81,797.90 616.84,793.50 C617.87,789.10 621.43,775.83 624.75,764.00 C628.07,752.17 631.03,741.15 631.33,739.50 C631.62,737.85 633.03,732.67 634.47,728.00 C635.91,723.33 638.18,715.45 639.53,710.50 C640.88,705.55 644.22,693.90 646.94,684.60 C649.66,675.31 652.19,665.33 652.55,662.43 L 653.21 657.16 L 647.37 649.83 C634.55,633.72 619.13,619.37 604.16,609.61 C597.32,605.15 582.67,597.40 580.00,596.82 C579.17,596.64 578.23,596.13 577.89,595.67 C576.77,594.14 551.02,585.95 544.22,584.96 C540.52,584.42 535.03,583.57 532.00,583.06 C524.69,581.84 507.38,581.82 492.10,583.01 C477.75,584.13 462.93,587.45 449.90,592.48 C440.04,596.29 418.76,607.09 416.33,609.53 C415.51,610.34 413.87,611.53 412.67,612.16 C404.87,616.29 385.01,635.11 373.96,648.84 C366.15,658.54 364.17,661.84 365.58,662.82 C366.12,663.19 367.15,666.42 367.87,670.00 C368.59,673.57 369.49,676.72 369.87,677.00 C370.25,677.27 372.00,683.12 373.75,690.00 C378.32,707.92 380.43,715.22 381.68,717.50 C382.28,718.60 383.33,722.20 384.00,725.50 C384.68,728.80 385.85,732.72 386.61,734.20 C387.38,735.69 388.00,738.25 388.00,739.89 C388.00,741.54 388.45,743.16 389.00,743.50 C389.55,743.84 390.00,744.98 390.00,746.04 C390.00,747.09 391.29,752.58 392.87,758.23 C394.45,763.88 397.17,773.67 398.92,780.00 C400.67,786.33 404.51,799.83 407.46,810.00 C416.27,840.42 417.11,843.37 417.86,846.50 C418.36,848.56 419.19,849.50 420.53,849.50 C422.63,849.50 424.75,845.69 430.51,831.50 C432.30,827.10 435.79,819.22 438.27,814.00 C440.74,808.78 445.35,798.65 448.50,791.50 C451.66,784.35 454.56,778.14 454.97,777.70 C455.37,777.26 456.72,780.64 457.97,785.20 C459.22,789.77 461.32,797.02 462.63,801.33 C463.94,805.64 464.75,809.59 464.42,810.12 C464.10,810.65 464.28,811.63 464.84,812.30 C465.39,812.97 467.26,819.36 469.00,826.51 C470.74,833.65 474.60,848.28 477.59,859.00 C484.08,882.29 485.61,888.00 491.63,911.50 C494.17,921.40 497.04,931.97 498.00,935.00 C498.97,938.03 500.32,942.97 501.00,946.00 C501.67,949.03 502.81,953.30 503.52,955.50 C504.24,957.70 505.11,961.30 505.46,963.50 C506.54,970.17 506.99,971.00 509.57,971.00 C511.24,971.00 512.00,970.44 512.00,969.21 ZM 85.01 863.69 C85.02,859.39 89.56,839.34 97.06,810.50 C99.34,801.70 101.66,792.47 102.21,790.00 C107.97,763.78 118.80,724.90 124.49,710.00 C125.23,708.08 126.98,703.48 128.40,699.79 C131.39,691.95 139.76,676.53 144.66,669.81 C146.54,667.23 151.52,661.91 155.71,657.99 C164.79,649.52 178.70,642.23 192.00,638.98 C209.04,634.82 235.51,635.42 257.57,640.46 L 264.65 642.08 L 266.47 648.29 C268.43,654.94 277.26,673.40 279.59,675.73 C280.37,676.51 281.00,677.52 281.00,677.97 C281.00,678.75 293.68,696.94 294.96,698.00 C295.30,698.28 296.60,699.85 297.87,701.50 C310.21,717.58 330.08,736.30 332.94,734.54 C334.41,733.63 334.26,731.41 332.62,729.76 C330.80,727.95 325.46,717.60 323.59,712.27 C312.13,679.63 316.07,635.91 333.35,604.00 C341.49,588.96 356.64,572.88 372.69,562.24 C394.38,547.85 398.32,545.69 415.70,538.63 C444.99,526.72 462.10,524.00 507.50,524.04 C544.64,524.07 558.31,526.06 587.50,535.68 C606.94,542.08 615.96,546.27 628.00,554.49 C639.45,562.30 645.92,567.75 655.87,577.93 C679.40,602.03 691.15,627.55 694.15,661.11 C695.23,673.14 695.17,676.88 693.69,689.72 C691.96,704.86 690.78,710.43 686.32,724.66 C682.40,737.17 684.20,737.64 696.16,727.19 C709.32,715.70 723.91,698.54 736.88,679.32 C742.85,670.47 754.13,648.36 755.52,642.79 C755.89,641.30 756.71,639.66 757.35,639.15 C758.80,637.97 772.68,634.08 777.71,633.44 C779.79,633.17 784.42,632.47 788.00,631.88 C799.17,630.04 822.21,630.54 832.69,632.86 C842.49,635.02 854.10,639.89 861.17,644.80 C878.23,656.65 892.83,681.66 906.24,722.00 C916.89,754.01 925.38,781.38 926.56,787.50 C927.31,791.32 933.00,810.51 933.98,812.50 C934.52,813.60 935.38,816.30 935.89,818.50 C938.38,829.25 943.92,849.05 945.14,851.62 C946.11,853.63 947.26,854.50 948.97,854.50 C953.50,854.50 954.21,849.05 953.66,818.50 C953.17,791.42 951.64,771.44 947.92,743.50 C946.82,735.25 945.29,723.55 944.51,717.50 C942.51,701.88 940.67,692.15 935.63,670.50 C922.37,613.54 912.91,587.87 895.25,561.00 C886.39,547.51 869.04,528.84 858.00,520.91 C855.53,519.13 853.28,517.36 853.00,516.97 C852.42,516.15 837.17,506.14 828.69,501.00 C825.50,499.08 818.31,494.52 812.70,490.88 C802.86,484.50 762.59,461.00 761.49,461.00 C761.20,461.00 759.10,459.76 756.83,458.25 C754.56,456.74 747.10,452.56 740.25,448.97 L 727.80 442.43 L 719.30 427.97 C706.80,406.69 694.98,385.85 688.98,374.50 C686.08,369.00 683.09,363.79 682.35,362.92 C681.61,362.05 681.00,361.06 681.00,360.72 C681.00,360.39 679.49,357.50 677.64,354.30 C674.60,349.07 668.27,337.37 664.20,329.50 C663.35,327.85 662.35,326.27 661.96,326.00 C661.58,325.73 659.47,322.09 657.27,317.93 C655.08,313.76 652.61,309.26 651.79,307.93 C650.97,306.59 645.79,297.17 640.28,287.00 C634.78,276.83 626.33,261.30 621.52,252.50 C616.71,243.70 610.06,231.32 606.75,225.00 C597.84,207.97 594.83,202.50 588.32,191.50 C586.69,188.75 582.52,181.10 579.06,174.50 C575.60,167.90 572.42,162.05 571.99,161.50 C571.56,160.95 568.52,155.29 565.24,148.91 C561.96,142.54 558.02,135.18 556.48,132.56 C552.34,125.49 550.22,121.55 542.39,106.32 C538.48,98.72 534.34,90.93 533.19,89.00 C532.04,87.07 528.27,79.88 524.80,73.02 C521.34,66.16 517.69,59.64 516.71,58.53 C515.72,57.43 513.48,53.72 511.74,50.29 C506.69,40.35 504.51,40.81 498.18,53.16 C495.84,57.75 490.29,68.47 485.85,77.00 C481.42,85.53 474.55,98.80 470.58,106.50 C466.61,114.20 461.19,124.55 458.52,129.50 C455.85,134.45 450.44,144.86 446.49,152.63 C442.54,160.40 438.40,168.05 437.30,169.63 C436.19,171.21 433.72,175.65 431.82,179.50 C429.92,183.35 425.06,192.80 421.04,200.50 C417.01,208.20 409.90,221.93 405.23,231.00 C400.56,240.07 396.36,247.99 395.88,248.59 C395.41,249.19 390.91,257.74 385.88,267.59 C375.62,287.69 372.10,294.36 369.85,298.00 C367.68,301.50 350.66,332.65 348.26,337.50 C343.07,348.01 333.70,365.55 333.03,366.00 C332.62,366.27 329.36,372.35 325.79,379.50 C318.85,393.40 307.44,414.14 299.11,428.00 C296.30,432.67 293.89,436.77 293.75,437.11 C293.61,437.44 286.98,441.65 279.00,446.47 C271.02,451.28 261.72,457.19 258.32,459.61 C254.92,462.02 251.85,464.00 251.48,464.00 C251.12,464.00 248.95,465.30 246.66,466.88 C244.37,468.47 235.75,474.15 227.50,479.51 C219.25,484.86 212.27,489.56 212.00,489.96 C211.73,490.35 209.02,492.26 206.00,494.20 C202.98,496.14 197.94,499.70 194.81,502.11 C191.68,504.53 184.26,509.88 178.31,514.00 C145.77,536.57 129.05,555.81 112.27,590.00 C103.49,607.88 90.74,650.37 86.91,674.50 C86.39,677.80 84.86,687.47 83.51,696.00 C76.46,740.55 72.66,790.69 73.27,831.00 C73.61,854.02 74.02,860.50 75.37,864.68 C76.38,867.82 77.72,870.03 78.77,870.28 C80.98,870.83 85.00,866.58 85.01,863.69 ZM 508.62 965.19 C508.29,964.67 506.72,959.12 505.12,952.87 C502.30,941.84 495.75,917.19 492.67,906.00 C491.84,902.97 489.34,893.53 487.12,885.00 C484.90,876.47 480.81,860.95 478.03,850.50 C475.26,840.05 472.03,827.90 470.87,823.50 C469.70,819.10 467.94,812.58 466.97,809.00 C465.99,805.42 464.20,798.67 462.99,794.00 C461.78,789.33 460.20,783.47 459.48,781.00 C458.76,778.53 457.90,775.26 457.57,773.75 C456.93,770.85 455.58,770.15 454.68,772.25 C454.38,772.94 451.03,780.47 447.24,789.00 C443.44,797.53 436.36,813.50 431.51,824.50 C423.20,843.32 421.13,847.47 420.42,846.75 C420.25,846.59 417.11,835.66 413.43,822.48 C409.75,809.29 405.86,795.35 404.78,791.50 C403.70,787.65 402.46,783.15 402.02,781.50 C401.58,779.85 399.10,771.30 396.51,762.50 C393.92,753.70 390.98,743.58 389.99,740.00 C389.00,736.42 386.12,726.30 383.59,717.50 C379.18,702.14 373.17,680.91 370.87,672.50 C370.26,670.30 369.32,667.27 368.77,665.77 C367.22,661.53 368.45,658.81 376.18,649.31 C390.45,631.79 404.16,619.44 420.88,609.03 C429.12,603.91 443.08,596.95 448.00,595.51 C449.38,595.11 451.85,594.20 453.50,593.50 C460.42,590.57 476.06,586.81 488.50,585.09 C504.67,582.86 532.48,584.21 547.00,587.93 C580.47,596.51 601.05,607.48 626.78,630.46 C628.62,632.11 642.35,647.53 648.84,655.25 C650.97,657.78 650.58,660.80 645.99,677.50 C643.73,685.75 641.25,694.75 640.50,697.50 C638.12,706.20 635.86,714.38 634.85,718.00 C634.31,719.92 633.48,723.08 633.00,725.00 C627.33,747.98 602.12,840.14 600.80,842.75 C600.17,843.99 599.36,845.00 598.98,845.00 C598.61,845.00 597.13,842.19 595.69,838.75 C589.88,824.81 571.10,779.07 568.70,773.02 C567.29,769.46 565.72,766.41 565.20,766.23 C564.26,765.92 563.34,769.07 553.94,804.50 C551.17,814.95 546.26,833.17 543.03,845.00 C539.80,856.83 535.81,871.67 534.15,878.00 C532.50,884.33 530.16,893.10 528.96,897.50 C527.76,901.90 525.05,912.03 522.94,920.00 C520.83,927.97 518.18,937.88 517.05,942.00 C515.92,946.12 514.25,952.42 513.34,956.00 C511.59,962.90 509.59,966.77 508.62,965.19 ZM 406.00 388.53 C406.00,388.26 409.37,381.17 413.49,372.77 C420.15,359.17 425.12,349.53 439.82,321.59 C442.11,317.23 444.67,312.92 445.49,312.01 C446.32,311.09 447.00,309.82 447.00,309.18 C447.00,308.55 450.42,301.38 454.61,293.26 C458.79,285.14 468.71,265.75 476.66,250.17 C484.60,234.59 494.17,215.91 497.91,208.67 C501.65,201.43 505.73,193.51 506.97,191.07 L 509.22 186.64 L 511.13 189.07 C512.18,190.41 515.90,197.12 519.40,204.00 C522.90,210.88 527.89,220.55 530.50,225.50 C538.14,240.00 548.49,260.00 559.99,282.50 C577.83,317.42 586.08,333.22 589.48,339.00 C595.33,348.94 613.18,384.15 612.64,384.69 C612.35,384.98 609.05,384.06 605.31,382.65 C571.88,370.01 528.04,363.84 493.50,366.90 C472.95,368.73 446.93,373.47 438.50,376.93 C437.40,377.38 433.80,378.53 430.50,379.49 C424.97,381.09 419.46,383.19 409.75,387.40 C407.69,388.30 406.00,388.80 406.00,388.53 Z" fill="rgb(251,1,1)"/>
<path d="M 0.00 512.00 L 0.00 0.00 L 512.00 0.00 L 1024.00 0.00 L 1024.00 512.00 L 1024.00 1024.00 L 512.00 1024.00 L 0.00 1024.00 L 0.00 512.00 ZM 512.00 969.21 C512.00,968.23 513.35,963.10 515.00,957.81 C516.65,952.53 520.27,939.27 523.04,928.35 C525.81,917.43 529.16,904.90 530.49,900.50 C531.81,896.10 533.31,890.70 533.83,888.50 C536.03,879.02 547.41,835.89 552.55,817.50 C554.54,810.35 557.92,797.58 560.05,789.13 C563.88,773.89 564.48,772.15 565.56,773.22 C566.56,774.22 574.95,794.02 586.22,822.00 C592.32,837.12 597.80,849.83 598.40,850.23 C599.01,850.64 599.91,850.84 600.42,850.68 C600.93,850.52 603.05,844.11 605.14,836.44 C607.24,828.77 610.30,817.78 611.96,812.00 C613.62,806.22 615.81,797.90 616.84,793.50 C617.87,789.10 621.43,775.83 624.75,764.00 C628.07,752.17 631.03,741.15 631.33,739.50 C631.62,737.85 633.03,732.67 634.47,728.00 C635.91,723.33 638.18,715.45 639.53,710.50 C640.88,705.55 644.22,693.90 646.94,684.60 C649.66,675.31 652.19,665.33 652.55,662.43 L 653.21 657.16 L 647.37 649.83 C634.55,633.72 619.13,619.37 604.16,609.61 C597.32,605.15 582.67,597.40 580.00,596.82 C579.17,596.64 578.23,596.13 577.89,595.67 C576.77,594.14 551.02,585.95 544.22,584.96 C540.52,584.42 535.03,583.57 532.00,583.06 C524.69,581.84 507.38,581.82 492.10,583.01 C477.75,584.13 462.93,587.45 449.90,592.48 C440.04,596.29 418.76,607.09 416.33,609.53 C415.51,610.34 413.87,611.53 412.67,612.16 C404.87,616.29 385.01,635.11 373.96,648.84 C366.15,658.54 364.17,661.84 365.58,662.82 C366.12,663.19 367.15,666.42 367.87,670.00 C368.59,673.57 369.49,676.72 369.87,677.00 C370.25,677.27 372.00,683.12 373.75,690.00 C378.32,707.92 380.43,715.22 381.68,717.50 C382.28,718.60 383.33,722.20 384.00,725.50 C384.68,728.80 385.85,732.72 386.61,734.20 C387.38,735.69 388.00,738.25 388.00,739.89 C388.00,741.54 388.45,743.16 389.00,743.50 C389.55,743.84 390.00,744.98 390.00,746.04 C390.00,747.09 391.29,752.58 392.87,758.23 C394.45,763.88 397.17,773.67 398.92,780.00 C400.67,786.33 404.51,799.83 407.46,810.00 C416.27,840.42 417.11,843.37 417.86,846.50 C418.36,848.56 419.19,849.50 420.53,849.50 C422.63,849.50 424.75,845.69 430.51,831.50 C432.30,827.10 435.79,819.22 438.27,814.00 C440.74,808.78 445.35,798.65 448.50,791.50 C451.66,784.35 454.56,778.14 454.97,777.70 C455.37,777.26 456.72,780.64 457.97,785.20 C459.22,789.77 461.32,797.02 462.63,801.33 C463.94,805.64 464.75,809.59 464.42,810.12 C464.10,810.65 464.28,811.63 464.84,812.30 C465.39,812.97 467.26,819.36 469.00,826.51 C470.74,833.65 474.60,848.28 477.59,859.00 C484.08,882.29 485.61,888.00 491.63,911.50 C494.17,921.40 497.04,931.97 498.00,935.00 C498.97,938.03 500.32,942.97 501.00,946.00 C501.67,949.03 502.81,953.30 503.52,955.50 C504.24,957.70 505.11,961.30 505.46,963.50 C506.54,970.17 506.99,971.00 509.57,971.00 C511.24,971.00 512.00,970.44 512.00,969.21 ZM 85.01 863.69 C85.02,859.39 89.56,839.34 97.06,810.50 C99.34,801.70 101.66,792.47 102.21,790.00 C107.97,763.78 118.80,724.90 124.49,710.00 C125.23,708.08 126.98,703.48 128.40,699.79 C131.39,691.95 139.76,676.53 144.66,669.81 C146.54,667.23 151.52,661.91 155.71,657.99 C164.79,649.52 178.70,642.23 192.00,638.98 C209.04,634.82 235.51,635.42 257.57,640.46 L 264.65 642.08 L 266.47 648.29 C268.43,654.94 277.26,673.40 279.59,675.73 C280.37,676.51 281.00,677.52 281.00,677.97 C281.00,678.75 293.68,696.94 294.96,698.00 C295.30,698.28 296.60,699.85 297.87,701.50 C310.21,717.58 330.08,736.30 332.94,734.54 C334.41,733.63 334.26,731.41 332.62,729.76 C330.80,727.95 325.46,717.60 323.59,712.27 C312.13,679.63 316.07,635.91 333.35,604.00 C341.49,588.96 356.64,572.88 372.69,562.24 C394.38,547.85 398.32,545.69 415.70,538.63 C444.99,526.72 462.10,524.00 507.50,524.04 C544.64,524.07 558.31,526.06 587.50,535.68 C606.94,542.08 615.96,546.27 628.00,554.49 C639.45,562.30 645.92,567.75 655.87,577.93 C679.40,602.03 691.15,627.55 694.15,661.11 C695.23,673.14 695.17,676.88 693.69,689.72 C691.96,704.86 690.78,710.43 686.32,724.66 C682.40,737.17 684.20,737.64 696.16,727.19 C709.32,715.70 723.91,698.54 736.88,679.32 C742.85,670.47 754.13,648.36 755.52,642.79 C755.89,641.30 756.71,639.66 757.35,639.15 C758.80,637.97 772.68,634.08 777.71,633.44 C779.79,633.17 784.42,632.47 788.00,631.88 C799.17,630.04 822.21,630.54 832.69,632.86 C842.49,635.02 854.10,639.89 861.17,644.80 C878.23,656.65 892.83,681.66 906.24,722.00 C916.89,754.01 925.38,781.38 926.56,787.50 C927.31,791.32 933.00,810.51 933.98,812.50 C934.52,813.60 935.38,816.30 935.89,818.50 C938.38,829.25 943.92,849.05 945.14,851.62 C946.11,853.63 947.26,854.50 948.97,854.50 C953.50,854.50 954.21,849.05 953.66,818.50 C953.17,791.42 951.64,771.44 947.92,743.50 C946.82,735.25 945.29,723.55 944.51,717.50 C942.51,701.88 940.67,692.15 935.63,670.50 C922.37,613.54 912.91,587.87 895.25,561.00 C886.39,547.51 869.04,528.84 858.00,520.91 C855.53,519.13 853.28,517.36 853.00,516.97 C852.42,516.15 837.17,506.14 828.69,501.00 C825.50,499.08 818.31,494.52 812.70,490.88 C802.86,484.50 762.59,461.00 761.49,461.00 C761.20,461.00 759.10,459.76 756.83,458.25 C754.56,456.74 747.10,452.56 740.25,448.97 L 727.80 442.43 L 719.30 427.97 C706.80,406.69 694.98,385.85 688.98,374.50 C686.08,369.00 683.09,363.79 682.35,362.92 C681.61,362.05 681.00,361.06 681.00,360.72 C681.00,360.39 679.49,357.50 677.64,354.30 C674.60,349.07 668.27,337.37 664.20,329.50 C663.35,327.85 662.35,326.27 661.96,326.00 C661.58,325.73 659.47,322.09 657.27,317.93 C655.08,313.76 652.61,309.26 651.79,307.93 C650.97,306.59 645.79,297.17 640.28,287.00 C634.78,276.83 626.33,261.30 621.52,252.50 C616.71,243.70 610.06,231.32 606.75,225.00 C597.84,207.97 594.83,202.50 588.32,191.50 C586.69,188.75 582.52,181.10 579.06,174.50 C575.60,167.90 572.42,162.05 571.99,161.50 C571.56,160.95 568.52,155.29 565.24,148.91 C561.96,142.54 558.02,135.18 556.48,132.56 C552.34,125.49 550.22,121.55 542.39,106.32 C538.48,98.72 534.34,90.93 533.19,89.00 C532.04,87.07 528.27,79.88 524.80,73.02 C521.34,66.16 517.69,59.64 516.71,58.53 C515.72,57.43 513.48,53.72 511.74,50.29 C506.69,40.35 504.51,40.81 498.18,53.16 C495.84,57.75 490.29,68.47 485.85,77.00 C481.42,85.53 474.55,98.80 470.58,106.50 C466.61,114.20 461.19,124.55 458.52,129.50 C455.85,134.45 450.44,144.86 446.49,152.63 C442.54,160.40 438.40,168.05 437.30,169.63 C436.19,171.21 433.72,175.65 431.82,179.50 C429.92,183.35 425.06,192.80 421.04,200.50 C417.01,208.20 409.90,221.93 405.23,231.00 C400.56,240.07 396.36,247.99 395.88,248.59 C395.41,249.19 390.91,257.74 385.88,267.59 C375.62,287.69 372.10,294.36 369.85,298.00 C367.68,301.50 350.66,332.65 348.26,337.50 C343.07,348.01 333.70,365.55 333.03,366.00 C332.62,366.27 329.36,372.35 325.79,379.50 C318.85,393.40 307.44,414.14 299.11,428.00 C296.30,432.67 293.89,436.77 293.75,437.11 C293.61,437.44 286.98,441.65 279.00,446.47 C271.02,451.28 261.72,457.19 258.32,459.61 C254.92,462.02 251.85,464.00 251.48,464.00 C251.12,464.00 248.95,465.30 246.66,466.88 C244.37,468.47 235.75,474.15 227.50,479.51 C219.25,484.86 212.27,489.56 212.00,489.96 C211.73,490.35 209.02,492.26 206.00,494.20 C202.98,496.14 197.94,499.70 194.81,502.11 C191.68,504.53 184.26,509.88 178.31,514.00 C145.77,536.57 129.05,555.81 112.27,590.00 C103.49,607.88 90.74,650.37 86.91,674.50 C86.39,677.80 84.86,687.47 83.51,696.00 C76.46,740.55 72.66,790.69 73.27,831.00 C73.61,854.02 74.02,860.50 75.37,864.68 C76.38,867.82 77.72,870.03 78.77,870.28 C80.98,870.83 85.00,866.58 85.01,863.69 ZM 393.00 751.57 C393.00,750.92 388.71,735.41 383.58,717.50 C379.08,701.80 373.03,680.40 370.87,672.50 C370.26,670.30 369.32,667.27 368.77,665.77 C367.22,661.53 368.45,658.81 376.18,649.31 C390.45,631.79 404.16,619.44 420.88,609.03 C429.12,603.91 443.08,596.95 448.00,595.51 C449.38,595.11 451.85,594.20 453.50,593.50 C460.42,590.57 476.06,586.81 488.50,585.09 C504.67,582.86 532.48,584.21 547.00,587.93 C580.47,596.51 601.05,607.48 626.78,630.46 C628.62,632.11 642.35,647.53 648.84,655.25 C650.97,657.78 650.58,660.80 645.99,677.50 C643.73,685.75 641.22,694.86 640.44,697.75 C638.57,704.58 636.08,713.59 634.85,718.00 C634.31,719.92 633.48,723.08 633.01,725.00 C632.54,726.92 631.00,732.55 629.60,737.50 C628.21,742.45 627.05,746.89 627.03,747.36 C627.01,747.84 621.91,743.33 615.68,737.35 C582.91,705.84 542.47,691.12 499.27,694.96 C467.52,697.79 446.72,705.30 424.60,721.92 C416.07,728.34 401.84,742.24 396.72,749.16 C394.89,751.64 393.00,752.86 393.00,751.57 ZM 406.00 388.53 C406.00,388.26 409.37,381.17 413.49,372.77 C420.15,359.17 425.12,349.53 439.82,321.59 C442.11,317.23 444.67,312.92 445.49,312.01 C446.32,311.09 447.00,309.82 447.00,309.18 C447.00,308.55 450.42,301.38 454.61,293.26 C458.79,285.14 468.71,265.75 476.66,250.17 C484.60,234.59 494.17,215.91 497.91,208.67 C501.65,201.43 505.73,193.51 506.97,191.07 L 509.22 186.64 L 511.13 189.07 C512.18,190.41 515.90,197.12 519.40,204.00 C522.90,210.88 527.89,220.55 530.50,225.50 C538.14,240.00 548.49,260.00 559.99,282.50 C577.83,317.42 586.08,333.22 589.48,339.00 C595.33,348.94 613.18,384.15 612.64,384.69 C612.35,384.98 609.05,384.06 605.31,382.65 C571.88,370.01 528.04,363.84 493.50,366.90 C472.95,368.73 446.93,373.47 438.50,376.93 C437.40,377.38 433.80,378.53 430.50,379.49 C424.97,381.09 419.46,383.19 409.75,387.40 C407.69,388.30 406.00,388.80 406.00,388.53 Z" fill="rgb(253,179,1)"/>
<path d="M 0.00 512.00 L 0.00 0.00 L 512.00 0.00 L 1024.00 0.00 L 1024.00 512.00 L 1024.00 1024.00 L 512.00 1024.00 L 0.00 1024.00 L 0.00 512.00 ZM 512.00 969.21 C512.00,968.23 513.35,963.10 515.00,957.81 C516.65,952.53 520.27,939.27 523.04,928.35 C525.81,917.43 529.16,904.90 530.49,900.50 C531.81,896.10 533.31,890.70 533.83,888.50 C536.03,879.02 547.41,835.89 552.55,817.50 C554.54,810.35 557.92,797.58 560.05,789.13 C563.88,773.89 564.48,772.15 565.56,773.22 C566.56,774.22 574.95,794.02 586.22,822.00 C592.32,837.12 597.80,849.83 598.40,850.23 C599.01,850.64 599.91,850.84 600.42,850.68 C600.93,850.52 603.05,844.11 605.14,836.44 C607.24,828.77 610.30,817.78 611.96,812.00 C613.62,806.22 615.81,797.90 616.84,793.50 C617.87,789.10 621.43,775.83 624.75,764.00 C628.07,752.17 631.03,741.15 631.33,739.50 C631.62,737.85 633.03,732.67 634.47,728.00 C635.91,723.33 638.18,715.45 639.53,710.50 C640.88,705.55 644.22,693.90 646.94,684.60 C649.66,675.31 652.19,665.33 652.55,662.43 L 653.21 657.16 L 647.37 649.83 C634.55,633.72 619.13,619.37 604.16,609.61 C597.32,605.15 582.67,597.40 580.00,596.82 C579.17,596.64 578.23,596.13 577.89,595.67 C576.77,594.14 551.02,585.95 544.22,584.96 C540.52,584.42 535.03,583.57 532.00,583.06 C524.69,581.84 507.38,581.82 492.10,583.01 C477.75,584.13 462.93,587.45 449.90,592.48 C440.04,596.29 418.76,607.09 416.33,609.53 C415.51,610.34 413.87,611.53 412.67,612.16 C404.87,616.29 385.01,635.11 373.96,648.84 C366.15,658.54 364.17,661.84 365.58,662.82 C366.12,663.19 367.15,666.42 367.87,670.00 C368.59,673.57 369.49,676.72 369.87,677.00 C370.25,677.27 372.00,683.12 373.75,690.00 C378.32,707.92 380.43,715.22 381.68,717.50 C382.28,718.60 383.33,722.20 384.00,725.50 C384.68,728.80 385.85,732.72 386.61,734.20 C387.38,735.69 388.00,738.25 388.00,739.89 C388.00,741.54 388.45,743.16 389.00,743.50 C389.55,743.84 390.00,744.98 390.00,746.04 C390.00,747.09 391.29,752.58 392.87,758.23 C394.45,763.88 397.17,773.67 398.92,780.00 C400.67,786.33 404.51,799.83 407.46,810.00 C416.27,840.42 417.11,843.37 417.86,846.50 C418.36,848.56 419.19,849.50 420.53,849.50 C422.63,849.50 424.75,845.69 430.51,831.50 C432.30,827.10 435.79,819.22 438.27,814.00 C440.74,808.78 445.35,798.65 448.50,791.50 C451.66,784.35 454.56,778.14 454.97,777.70 C455.37,777.26 456.72,780.64 457.97,785.20 C459.22,789.77 461.32,797.02 462.63,801.33 C463.94,805.64 464.75,809.59 464.42,810.12 C464.10,810.65 464.28,811.63 464.84,812.30 C465.39,812.97 467.26,819.36 469.00,826.51 C470.74,833.65 474.60,848.28 477.59,859.00 C484.08,882.29 485.61,888.00 491.63,911.50 C494.17,921.40 497.04,931.97 498.00,935.00 C498.97,938.03 500.32,942.97 501.00,946.00 C501.67,949.03 502.81,953.30 503.52,955.50 C504.24,957.70 505.11,961.30 505.46,963.50 C506.54,970.17 506.99,971.00 509.57,971.00 C511.24,971.00 512.00,970.44 512.00,969.21 ZM 85.01 863.69 C85.02,859.39 89.56,839.34 97.06,810.50 C99.34,801.70 101.66,792.47 102.21,790.00 C107.97,763.78 118.80,724.90 124.49,710.00 C125.23,708.08 126.98,703.48 128.40,699.79 C131.39,691.95 139.76,676.53 144.66,669.81 C146.54,667.23 151.52,661.91 155.71,657.99 C164.79,649.52 178.70,642.23 192.00,638.98 C209.04,634.82 235.51,635.42 257.57,640.46 L 264.65 642.08 L 266.47 648.29 C268.43,654.94 277.26,673.40 279.59,675.73 C280.37,676.51 281.00,677.52 281.00,677.97 C281.00,678.75 293.68,696.94 294.96,698.00 C295.30,698.28 296.60,699.85 297.87,701.50 C310.21,717.58 330.08,736.30 332.94,734.54 C334.41,733.63 334.26,731.41 332.62,729.76 C330.80,727.95 325.46,717.60 323.59,712.27 C312.13,679.63 316.07,635.91 333.35,604.00 C341.49,588.96 356.64,572.88 372.69,562.24 C394.38,547.85 398.32,545.69 415.70,538.63 C444.99,526.72 462.10,524.00 507.50,524.04 C544.64,524.07 558.31,526.06 587.50,535.68 C606.94,542.08 615.96,546.27 628.00,554.49 C639.45,562.30 645.92,567.75 655.87,577.93 C679.40,602.03 691.15,627.55 694.15,661.11 C695.23,673.14 695.17,676.88 693.69,689.72 C691.96,704.86 690.78,710.43 686.32,724.66 C682.40,737.17 684.20,737.64 696.16,727.19 C709.32,715.70 723.91,698.54 736.88,679.32 C742.85,670.47 754.13,648.36 755.52,642.79 C755.89,641.30 756.71,639.66 757.35,639.15 C758.80,637.97 772.68,634.08 777.71,633.44 C779.79,633.17 784.42,632.47 788.00,631.88 C799.17,630.04 822.21,630.54 832.69,632.86 C842.49,635.02 854.10,639.89 861.17,644.80 C878.23,656.65 892.83,681.66 906.24,722.00 C916.89,754.01 925.38,781.38 926.56,787.50 C927.31,791.32 933.00,810.51 933.98,812.50 C934.52,813.60 935.38,816.30 935.89,818.50 C938.38,829.25 943.92,849.05 945.14,851.62 C946.11,853.63 947.26,854.50 948.97,854.50 C953.50,854.50 954.21,849.05 953.66,818.50 C953.17,791.42 951.64,771.44 947.92,743.50 C946.82,735.25 945.29,723.55 944.51,717.50 C942.51,701.88 940.67,692.15 935.63,670.50 C922.37,613.54 912.91,587.87 895.25,561.00 C886.39,547.51 869.04,528.84 858.00,520.91 C855.53,519.13 853.28,517.36 853.00,516.97 C852.42,516.15 837.17,506.14 828.69,501.00 C825.50,499.08 818.31,494.52 812.70,490.88 C802.86,484.50 762.59,461.00 761.49,461.00 C761.20,461.00 759.10,459.76 756.83,458.25 C754.56,456.74 747.10,452.56 740.25,448.97 L 727.80 442.43 L 719.30 427.97 C706.80,406.69 694.98,385.85 688.98,374.50 C686.08,369.00 683.09,363.79 682.35,362.92 C681.61,362.05 681.00,361.06 681.00,360.72 C681.00,360.39 679.49,357.50 677.64,354.30 C674.60,349.07 668.27,337.37 664.20,329.50 C663.35,327.85 662.35,326.27 661.96,326.00 C661.58,325.73 659.47,322.09 657.27,317.93 C655.08,313.76 652.61,309.26 651.79,307.93 C650.97,306.59 645.79,297.17 640.28,287.00 C634.78,276.83 626.33,261.30 621.52,252.50 C616.71,243.70 610.06,231.32 606.75,225.00 C597.84,207.97 594.83,202.50 588.32,191.50 C586.69,188.75 582.52,181.10 579.06,174.50 C575.60,167.90 572.42,162.05 571.99,161.50 C571.56,160.95 568.52,155.29 565.24,148.91 C561.96,142.54 558.02,135.18 556.48,132.56 C552.34,125.49 550.22,121.55 542.39,106.32 C538.48,98.72 534.34,90.93 533.19,89.00 C532.04,87.07 528.27,79.88 524.80,73.02 C521.34,66.16 517.69,59.64 516.71,58.53 C515.72,57.43 513.48,53.72 511.74,50.29 C506.69,40.35 504.51,40.81 498.18,53.16 C495.84,57.75 490.29,68.47 485.85,77.00 C481.42,85.53 474.55,98.80 470.58,106.50 C466.61,114.20 461.19,124.55 458.52,129.50 C455.85,134.45 450.44,144.86 446.49,152.63 C442.54,160.40 438.40,168.05 437.30,169.63 C436.19,171.21 433.72,175.65 431.82,179.50 C429.92,183.35 425.06,192.80 421.04,200.50 C417.01,208.20 409.90,221.93 405.23,231.00 C400.56,240.07 396.36,247.99 395.88,248.59 C395.41,249.19 390.91,257.74 385.88,267.59 C375.62,287.69 372.10,294.36 369.85,298.00 C367.68,301.50 350.66,332.65 348.26,337.50 C343.07,348.01 333.70,365.55 333.03,366.00 C332.62,366.27 329.36,372.35 325.79,379.50 C318.85,393.40 307.44,414.14 299.11,428.00 C296.30,432.67 293.89,436.77 293.75,437.11 C293.61,437.44 286.98,441.65 279.00,446.47 C271.02,451.28 261.72,457.19 258.32,459.61 C254.92,462.02 251.85,464.00 251.48,464.00 C251.12,464.00 248.95,465.30 246.66,466.88 C244.37,468.47 235.75,474.15 227.50,479.51 C219.25,484.86 212.27,489.56 212.00,489.96 C211.73,490.35 209.02,492.26 206.00,494.20 C202.98,496.14 197.94,499.70 194.81,502.11 C191.68,504.53 184.26,509.88 178.31,514.00 C145.77,536.57 129.05,555.81 112.27,590.00 C103.49,607.88 90.74,650.37 86.91,674.50 C86.39,677.80 84.86,687.47 83.51,696.00 C76.46,740.55 72.66,790.69 73.27,831.00 C73.61,854.02 74.02,860.50 75.37,864.68 C76.38,867.82 77.72,870.03 78.77,870.28 C80.98,870.83 85.00,866.58 85.01,863.69 ZM 381.12 709.10 C378.90,701.30 372.43,678.21 370.87,672.50 C370.26,670.30 369.32,667.27 368.77,665.77 C367.22,661.53 368.45,658.81 376.18,649.31 C390.45,631.79 404.16,619.44 420.88,609.03 C429.12,603.91 443.08,596.95 448.00,595.51 C449.38,595.11 451.85,594.20 453.50,593.50 C460.42,590.57 476.06,586.81 488.50,585.09 C504.67,582.86 532.48,584.21 547.00,587.93 C580.47,596.51 601.05,607.48 626.78,630.46 C628.62,632.11 642.35,647.53 648.84,655.25 C650.97,657.78 650.58,660.80 646.00,677.50 C643.73,685.75 641.02,695.69 639.97,699.58 C636.41,712.80 637.23,712.33 629.90,705.43 C596.19,673.73 557.16,658.00 512.23,658.00 C462.30,658.00 427.60,671.51 395.25,703.56 L 382.99 715.69 L 381.12 709.10 ZM 406.00 388.53 C406.00,388.26 409.37,381.17 413.49,372.77 C420.15,359.17 425.12,349.53 439.82,321.59 C442.11,317.23 444.67,312.92 445.49,312.01 C446.32,311.09 447.00,309.82 447.00,309.18 C447.00,308.55 450.42,301.38 454.61,293.26 C458.79,285.14 468.71,265.75 476.66,250.17 C484.60,234.59 494.17,215.91 497.91,208.67 C501.65,201.43 505.73,193.51 506.97,191.07 L 509.22 186.64 L 511.13 189.07 C512.18,190.41 515.90,197.12 519.40,204.00 C522.90,210.88 527.89,220.55 530.50,225.50 C538.14,240.00 548.49,260.00 559.99,282.50 C577.83,317.42 586.08,333.22 589.48,339.00 C595.33,348.94 613.18,384.15 612.64,384.69 C612.35,384.98 609.05,384.06 605.31,382.65 C571.88,370.01 528.04,363.84 493.50,366.90 C472.95,368.73 446.93,373.47 438.50,376.93 C437.40,377.38 433.80,378.53 430.50,379.49 C424.97,381.09 419.46,383.19 409.75,387.40 C407.69,388.30 406.00,388.80 406.00,388.53 Z" fill="rgb(253,239,3)"/>
<path d="M 0.00 512.00 L 0.00 0.00 L 512.00 0.00 L 1024.00 0.00 L 1024.00 512.00 L 1024.00 1024.00 L 512.00 1024.00 L 0.00 1024.00 L 0.00 512.00 ZM 512.00 969.21 C512.00,968.23 513.35,963.10 515.00,957.81 C516.65,952.53 520.27,939.27 523.04,928.35 C525.81,917.43 529.16,904.90 530.49,900.50 C531.81,896.10 533.31,890.70 533.83,888.50 C536.03,879.02 547.41,835.89 552.55,817.50 C554.54,810.35 557.92,797.58 560.05,789.13 C563.88,773.89 564.48,772.15 565.56,773.22 C566.56,774.22 574.95,794.02 586.22,822.00 C592.32,837.12 597.80,849.83 598.40,850.23 C599.01,850.64 599.91,850.84 600.42,850.68 C600.93,850.52 603.05,844.11 605.14,836.44 C607.24,828.77 610.30,817.78 611.96,812.00 C613.62,806.22 615.81,797.90 616.84,793.50 C617.87,789.10 621.43,775.83 624.75,764.00 C628.07,752.17 631.03,741.15 631.33,739.50 C631.62,737.85 633.03,732.67 634.47,728.00 C635.91,723.33 638.18,715.45 639.53,710.50 C640.88,705.55 644.22,693.90 646.94,684.60 C649.66,675.31 652.19,665.33 652.55,662.43 L 653.21 657.16 L 647.37 649.83 C634.55,633.72 619.13,619.37 604.16,609.61 C597.32,605.15 582.67,597.40 580.00,596.82 C579.17,596.64 578.23,596.13 577.89,595.67 C576.77,594.14 551.02,585.95 544.22,584.96 C540.52,584.42 535.03,583.57 532.00,583.06 C524.69,581.84 507.38,581.82 492.10,583.01 C477.75,584.13 462.93,587.45 449.90,592.48 C440.04,596.29 418.76,607.09 416.33,609.53 C415.51,610.34 413.87,611.53 412.67,612.16 C404.87,616.29 385.01,635.11 373.96,648.84 C366.15,658.54 364.17,661.84 365.58,662.82 C366.12,663.19 367.15,666.42 367.87,670.00 C368.59,673.57 369.49,676.72 369.87,677.00 C370.25,677.27 372.00,683.12 373.75,690.00 C378.32,707.92 380.43,715.22 381.68,717.50 C382.28,718.60 383.33,722.20 384.00,725.50 C384.68,728.80 385.85,732.72 386.61,734.20 C387.38,735.69 388.00,738.25 388.00,739.89 C388.00,741.54 388.45,743.16 389.00,743.50 C389.55,743.84 390.00,744.98 390.00,746.04 C390.00,747.09 391.29,752.58 392.87,758.23 C394.45,763.88 397.17,773.67 398.92,780.00 C400.67,786.33 404.51,799.83 407.46,810.00 C416.27,840.42 417.11,843.37 417.86,846.50 C418.36,848.56 419.19,849.50 420.53,849.50 C422.63,849.50 424.75,845.69 430.51,831.50 C432.30,827.10 435.79,819.22 438.27,814.00 C440.74,808.78 445.35,798.65 448.50,791.50 C451.66,784.35 454.56,778.14 454.97,777.70 C455.37,777.26 456.72,780.64 457.97,785.20 C459.22,789.77 461.32,797.02 462.63,801.33 C463.94,805.64 464.75,809.59 464.42,810.12 C464.10,810.65 464.28,811.63 464.84,812.30 C465.39,812.97 467.26,819.36 469.00,826.51 C470.74,833.65 474.60,848.28 477.59,859.00 C484.08,882.29 485.61,888.00 491.63,911.50 C494.17,921.40 497.04,931.97 498.00,935.00 C498.97,938.03 500.32,942.97 501.00,946.00 C501.67,949.03 502.81,953.30 503.52,955.50 C504.24,957.70 505.11,961.30 505.46,963.50 C506.54,970.17 506.99,971.00 509.57,971.00 C511.24,971.00 512.00,970.44 512.00,969.21 ZM 85.01 863.69 C85.02,859.39 89.56,839.34 97.06,810.50 C99.34,801.70 101.66,792.47 102.21,790.00 C107.97,763.78 118.80,724.90 124.49,710.00 C125.23,708.08 126.98,703.48 128.40,699.79 C131.39,691.95 139.76,676.53 144.66,669.81 C146.54,667.23 151.52,661.91 155.71,657.99 C164.79,649.52 178.70,642.23 192.00,638.98 C209.04,634.82 235.51,635.42 257.57,640.46 L 264.65 642.08 L 266.47 648.29 C268.43,654.94 277.26,673.40 279.59,675.73 C280.37,676.51 281.00,677.52 281.00,677.97 C281.00,678.75 293.68,696.94 294.96,698.00 C295.30,698.28 296.60,699.85 297.87,701.50 C310.21,717.58 330.08,736.30 332.94,734.54 C334.41,733.63 334.26,731.41 332.62,729.76 C330.80,727.95 325.46,717.60 323.59,712.27 C312.13,679.63 316.07,635.91 333.35,604.00 C341.49,588.96 356.64,572.88 372.69,562.24 C394.38,547.85 398.32,545.69 415.70,538.63 C444.99,526.72 462.10,524.00 507.50,524.04 C544.64,524.07 558.31,526.06 587.50,535.68 C606.94,542.08 615.96,546.27 628.00,554.49 C639.45,562.30 645.92,567.75 655.87,577.93 C679.40,602.03 691.15,627.55 694.15,661.11 C695.23,673.14 695.17,676.88 693.69,689.72 C691.96,704.86 690.78,710.43 686.32,724.66 C682.40,737.17 684.20,737.64 696.16,727.19 C709.32,715.70 723.91,698.54 736.88,679.32 C742.85,670.47 754.13,648.36 755.52,642.79 C755.89,641.30 756.71,639.66 757.35,639.15 C758.80,637.97 772.68,634.08 777.71,633.44 C779.79,633.17 784.42,632.47 788.00,631.88 C799.17,630.04 822.21,630.54 832.69,632.86 C842.49,635.02 854.10,639.89 861.17,644.80 C878.23,656.65 892.83,681.66 906.24,722.00 C916.89,754.01 925.38,781.38 926.56,787.50 C927.31,791.32 933.00,810.51 933.98,812.50 C934.52,813.60 935.38,816.30 935.89,818.50 C938.38,829.25 943.92,849.05 945.14,851.62 C946.11,853.63 947.26,854.50 948.97,854.50 C953.50,854.50 954.21,849.05 953.66,818.50 C953.17,791.42 951.64,771.44 947.92,743.50 C946.82,735.25 945.29,723.55 944.51,717.50 C942.51,701.88 940.67,692.15 935.63,670.50 C922.37,613.54 912.91,587.87 895.25,561.00 C886.39,547.51 869.04,528.84 858.00,520.91 C855.53,519.13 853.28,517.36 853.00,516.97 C852.42,516.15 837.17,506.14 828.69,501.00 C825.50,499.08 818.31,494.52 812.70,490.88 C802.86,484.50 762.59,461.00 761.49,461.00 C761.20,461.00 759.10,459.76 756.83,458.25 C754.56,456.74 747.10,452.56 740.25,448.97 L 727.80 442.43 L 719.30 427.97 C706.80,406.69 694.98,385.85 688.98,374.50 C686.08,369.00 683.09,363.79 682.35,362.92 C681.61,362.05 681.00,361.06 681.00,360.72 C681.00,360.39 679.49,357.50 677.64,354.30 C674.60,349.07 668.27,337.37 664.20,329.50 C663.35,327.85 662.35,326.27 661.96,326.00 C661.58,325.73 659.47,322.09 657.27,317.93 C655.08,313.76 652.61,309.26 651.79,307.93 C650.97,306.59 645.79,297.17 640.28,287.00 C634.78,276.83 626.33,261.30 621.52,252.50 C616.71,243.70 610.06,231.32 606.75,225.00 C597.84,207.97 594.83,202.50 588.32,191.50 C586.69,188.75 582.52,181.10 579.06,174.50 C575.60,167.90 572.42,162.05 571.99,161.50 C571.56,160.95 568.52,155.29 565.24,148.91 C561.96,142.54 558.02,135.18 556.48,132.56 C552.34,125.49 550.22,121.55 542.39,106.32 C538.48,98.72 534.34,90.93 533.19,89.00 C532.04,87.07 528.27,79.88 524.80,73.02 C521.34,66.16 517.69,59.64 516.71,58.53 C515.72,57.43 513.48,53.72 511.74,50.29 C506.69,40.35 504.51,40.81 498.18,53.16 C495.84,57.75 490.29,68.47 485.85,77.00 C481.42,85.53 474.55,98.80 470.58,106.50 C466.61,114.20 461.19,124.55 458.52,129.50 C455.85,134.45 450.44,144.86 446.49,152.63 C442.54,160.40 438.40,168.05 437.30,169.63 C436.19,171.21 433.72,175.65 431.82,179.50 C429.92,183.35 425.06,192.80 421.04,200.50 C417.01,208.20 409.90,221.93 405.23,231.00 C400.56,240.07 396.36,247.99 395.88,248.59 C395.41,249.19 390.91,257.74 385.88,267.59 C375.62,287.69 372.10,294.36 369.85,298.00 C367.68,301.50 350.66,332.65 348.26,337.50 C343.07,348.01 333.70,365.55 333.03,366.00 C332.62,366.27 329.36,372.35 325.79,379.50 C318.85,393.40 307.44,414.14 299.11,428.00 C296.30,432.67 293.89,436.77 293.75,437.11 C293.61,437.44 286.98,441.65 279.00,446.47 C271.02,451.28 261.72,457.19 258.32,459.61 C254.92,462.02 251.85,464.00 251.48,464.00 C251.12,464.00 248.95,465.30 246.66,466.88 C244.37,468.47 235.75,474.15 227.50,479.51 C219.25,484.86 212.27,489.56 212.00,489.96 C211.73,490.35 209.02,492.26 206.00,494.20 C202.98,496.14 197.94,499.70 194.81,502.11 C191.68,504.53 184.26,509.88 178.31,514.00 C145.77,536.57 129.05,555.81 112.27,590.00 C103.49,607.88 90.74,650.37 86.91,674.50 C86.39,677.80 84.86,687.47 83.51,696.00 C76.46,740.55 72.66,790.69 73.27,831.00 C73.61,854.02 74.02,860.50 75.37,864.68 C76.38,867.82 77.72,870.03 78.77,870.28 C80.98,870.83 85.00,866.58 85.01,863.69 ZM 406.00 388.53 C406.00,388.26 409.37,381.17 413.49,372.77 C420.15,359.17 425.12,349.53 439.82,321.59 C442.11,317.23 444.67,312.92 445.49,312.01 C446.32,311.09 447.00,309.82 447.00,309.18 C447.00,308.55 450.42,301.38 454.61,293.26 C458.79,285.14 468.71,265.75 476.66,250.17 C484.60,234.59 494.17,215.91 497.91,208.67 C501.65,201.43 505.73,193.51 506.97,191.07 L 509.22 186.64 L 511.13 189.07 C512.18,190.41 515.90,197.12 519.40,204.00 C522.90,210.88 527.89,220.55 530.50,225.50 C538.14,240.00 548.49,260.00 559.99,282.50 C577.83,317.42 586.08,333.22 589.48,339.00 C595.33,348.94 613.18,384.15 612.64,384.69 C612.35,384.98 609.05,384.06 605.31,382.65 C571.88,370.01 528.04,363.84 493.50,366.90 C472.95,368.73 446.93,373.47 438.50,376.93 C437.40,377.38 433.80,378.53 430.50,379.49 C424.97,381.09 419.46,383.19 409.75,387.40 C407.69,388.30 406.00,388.80 406.00,388.53 Z" fill="rgb(254,254,254)"/>
</g>
</svg>